<?xml version="1.0" standalone="no"?>
<!DOCTYPE svg PUBLIC "-//W3C//DTD SVG 20010904//EN"
 "http://www.w3.org/TR/2001/REC-SVG-20010904/DTD/svg10.dtd">
<svg version="1.0" xmlns="http://www.w3.org/2000/svg"
 width="400.000000pt" height="400.000000pt" viewBox="0 0 400.000000 400.000000"
 preserveAspectRatio="xMidYMid meet">
<metadata>
Created by potrace 1.14, written by Peter Selinger 2001-2017
</metadata>
<g transform="translate(0.000000,400.000000) scale(0.100000,-0.100000)"
fill="#000000" stroke="none">
<path d="M7 3987 c-9 -25 -6 -1477 3 -1477 6 0 10 -5 10 -11 0 -5 -4 -8 -9 -5
-4 3 -8 -19 -8 -49 1 -29 5 -51 9 -49 5 3 6 10 3 15 -4 5 -2 9 4 9 6 0 15 -9
21 -19 10 -19 33 -22 47 -6 4 4 -2 5 -15 2 -18 -4 -21 -3 -12 8 11 14 63 27
55 14 -3 -4 1 -10 7 -12 7 -3 4 -6 -7 -7 -19 -1 -19 -1 -2 -11 13 -8 22 -7 32
1 8 7 15 7 19 1 4 -5 -2 -12 -11 -14 -17 -4 30 -12 51 -8 5 1 5 -6 2 -16 -7
-17 -6 -17 11 0 17 18 17 19 -1 33 -11 8 -18 14 -15 15 31 6 49 3 54 -8 6 -17
-49 -75 -67 -71 -7 2 -13 -2 -13 -7 0 -6 6 -9 13 -9 15 2 15 -8 0 -25 -11 -11
-10 -12 2 -5 19 10 63 5 71 -8 4 -6 12 -2 18 11 9 17 16 19 30 11 10 -5 22 -6
26 -2 5 4 5 1 1 -5 -4 -7 -16 -18 -28 -24 -15 -8 -19 -8 -14 0 4 6 3 11 -3 11
-5 0 -13 -5 -17 -11 -3 -6 -15 -9 -25 -6 -17 5 -24 -4 -20 -25 0 -5 -3 -8 -9
-8 -5 0 -10 -4 -10 -9 0 -5 8 -8 18 -6 22 3 52 -23 52 -47 0 -10 5 -18 11 -18
6 0 8 -7 5 -15 -4 -11 3 -19 21 -26 29 -11 54 -39 46 -52 -2 -4 1 -6 8 -5 6 2
14 -3 16 -10 3 -6 -1 -10 -9 -9 -7 2 -10 2 -5 0 4 -3 7 -9 7 -14 0 -6 -4 -8
-8 -5 -5 3 -9 -1 -9 -9 0 -8 9 -17 19 -21 11 -3 17 -11 15 -18 -3 -6 1 -20 8
-29 11 -15 13 -16 19 -2 3 9 0 15 -10 15 -11 0 -13 4 -6 17 10 18 42 27 42 12
0 -5 9 -9 20 -9 11 0 20 7 20 15 0 12 3 12 20 -2 24 -21 8 -35 -28 -26 -22 5
-23 4 -11 -15 10 -16 17 -18 31 -11 12 6 18 6 18 -1 0 -9 -8 -12 -54 -14 -11
-1 -21 -8 -23 -16 -4 -12 -3 -12 5 -1 7 10 14 11 31 2 11 -7 21 -17 21 -24 0
-8 3 -8 9 2 7 11 13 8 26 -13 18 -27 35 -34 35 -15 0 5 -5 7 -11 3 -8 -4 -8 0
0 15 14 25 24 26 40 7 9 -11 8 -17 -3 -29 -14 -13 -14 -16 0 -21 10 -4 13 -2
8 6 -5 7 -2 9 9 5 12 -4 14 -2 10 11 -6 15 -5 16 12 2 11 -9 16 -10 11 -2 -4
7 -2 12 4 12 6 0 8 5 4 11 -4 8 -1 8 13 1 21 -11 41 -11 60 1 6 4 14 3 18 -2
3 -6 13 -8 23 -5 16 5 16 5 0 -6 -20 -13 -24 -30 -6 -30 6 0 8 3 5 7 -10 10
31 35 45 27 7 -4 8 -3 4 4 -4 7 -2 12 4 12 16 0 8 -52 -9 -58 -9 -3 -11 0 -6
9 5 8 4 11 -1 6 -11 -11 -13 -58 -2 -51 5 3 7 9 4 12 -10 9 33 34 47 26 8 -6
8 -3 -1 9 -12 14 -11 20 3 39 10 13 15 16 13 8 -4 -12 4 -15 34 -16 29 -1 37
1 29 9 -6 6 -11 14 -11 18 0 12 31 3 40 -12 7 -11 12 -11 21 -2 13 13 39 -5
39 -29 0 -10 3 -9 10 2 5 8 7 24 4 35 -4 11 -4 17 0 14 11 -11 26 -70 15 -64
-5 4 -9 1 -9 -4 0 -6 5 -11 10 -11 6 0 10 -6 10 -13 0 -32 277 -46 331 -16 15
7 19 8 15 0 -4 -6 -3 -11 3 -11 5 0 11 6 14 13 3 9 8 8 22 -3 14 -11 17 -12
11 -1 -6 9 -5 12 5 9 8 -3 29 3 46 14 31 18 35 18 64 4 35 -18 52 -21 29 -6
-13 8 -12 10 4 10 11 0 17 3 13 6 -3 4 1 13 9 21 12 12 18 13 29 3 11 -9 15
-9 15 -1 0 6 5 11 12 11 6 0 4 -7 -5 -18 -16 -17 -16 -19 -1 -19 9 0 19 9 22
20 3 14 11 18 28 14 13 -2 29 2 35 9 13 15 44 19 35 5 -4 -5 4 -7 16 -3 16 4
19 2 13 -9 -5 -8 -5 -11 0 -7 4 4 15 2 24 -5 14 -10 14 -10 3 5 -16 20 -7 42
14 34 7 -3 20 2 29 10 15 16 40 10 30 -7 -3 -5 1 -6 9 -3 9 3 13 11 9 18 -3 6
-3 8 1 5 4 -4 23 -3 42 1 19 4 34 4 34 -1 0 -5 5 -9 11 -9 5 0 7 5 4 10 -8 12
5 13 24 1 7 -5 10 -15 7 -22 -4 -8 -2 -7 6 2 7 9 24 15 38 13 41 -3 80 8 80
22 0 8 8 15 18 15 9 1 27 2 39 3 12 0 25 5 29 9 5 4 2 6 -6 2 -9 -3 -20 3 -28
15 -12 19 -10 20 19 15 18 -3 37 0 46 7 12 9 16 9 23 -2 5 -8 13 -11 17 -6 4
5 2 11 -5 13 -17 7 -15 24 5 39 21 14 18 19 -17 28 -14 3 -19 3 -12 0 20 -9
-5 -34 -26 -26 -15 5 -15 4 1 -12 19 -19 9 -45 -12 -32 -13 9 -9 39 8 60 8 9
9 16 3 16 -6 0 -19 3 -29 6 -15 5 -15 4 -3 -5 8 -6 10 -11 4 -11 -5 0 -19 7
-30 15 -16 13 -16 14 -1 9 9 -3 17 -1 17 5 0 6 12 11 26 11 16 0 23 -4 18 -12
-4 -7 -3 -8 4 -4 21 13 1 36 -29 32 -32 -4 -48 8 -24 18 8 3 17 1 20 -4 7 -11
35 -2 35 12 0 5 -5 6 -10 3 -13 -8 -8 18 5 27 18 13 31 8 32 -12 1 -11 -2 -18
-8 -15 -5 4 -9 1 -9 -4 0 -6 6 -11 13 -11 8 0 7 -4 -3 -10 -13 -8 -12 -10 3
-10 12 0 17 8 17 26 0 24 2 25 17 13 13 -11 13 -8 -2 13 -11 15 -25 28 -32 28
-6 0 -13 6 -16 13 -4 10 -7 10 -18 0 -16 -16 -42 -17 -37 -1 5 15 49 18 68 5
8 -6 12 -7 8 -3 -4 5 -1 14 7 20 12 10 12 14 0 30 -8 11 -18 17 -21 13 -4 -4
-1 -13 6 -22 10 -13 9 -15 -8 -15 -23 0 -42 20 -20 21 7 0 2 5 -12 10 -18 8
-21 12 -11 18 11 7 11 9 0 14 -8 3 1 6 19 6 30 1 33 3 26 24 -5 12 -8 32 -7
45 0 12 -4 22 -9 22 -6 0 -8 7 -5 15 4 8 2 17 -3 20 -6 4 -10 -2 -11 -12 0
-11 -3 -13 -6 -5 -2 6 -8 10 -11 8 -4 -2 -13 2 -20 10 -7 8 -9 14 -4 14 5 0 9
7 9 15 0 11 -4 12 -14 4 -9 -9 -13 -8 -13 0 0 7 -5 9 -11 5 -7 -4 -9 0 -5 14
4 12 2 23 -5 28 -8 5 -9 3 -4 -6 5 -9 4 -11 -3 -6 -7 4 -12 13 -12 21 0 8 -9
20 -21 28 -11 8 -16 18 -11 21 14 8 43 -4 36 -15 -3 -5 0 -9 5 -9 15 0 14 12
-4 37 -10 14 -21 20 -32 16 -12 -5 -14 -3 -8 8 7 11 5 11 -10 -1 -10 -8 -28
-15 -40 -15 -19 -1 -21 2 -11 17 6 10 14 18 18 18 5 0 8 6 8 14 0 7 8 16 18
18 22 6 25 35 4 43 -20 8 -30 -4 -12 -15 18 -11 6 -25 -14 -17 -10 4 -13 13
-9 24 6 16 5 17 -12 3 -17 -14 -18 -13 -11 5 4 11 4 16 0 12 -9 -9 -33 23 -34
45 0 11 6 16 19 13 15 -3 18 0 14 13 -9 22 -23 32 -50 32 -16 0 -23 6 -23 19
0 23 -24 33 -62 26 -30 -6 -48 12 -27 26 9 5 18 4 24 -5 6 -7 16 -11 23 -8 17
5 -4 32 -27 32 -14 0 -14 2 -1 10 23 15 38 12 45 -11 6 -17 9 -18 23 -7 9 7
13 8 10 3 -4 -6 0 -19 8 -30 8 -10 14 -14 14 -8 0 7 -5 15 -10 18 -6 4 -8 11
-4 16 3 6 -3 13 -14 16 -21 5 -38 46 -22 51 6 2 10 8 10 14 0 6 -6 6 -15 -2
-21 -17 -19 4 2 25 15 16 17 16 27 -2 10 -18 12 -23 14 -55 1 -10 8 -18 16
-18 20 0 29 17 15 26 -8 4 -9 3 -5 -4 4 -7 3 -12 -2 -12 -16 0 -24 33 -10 42
10 6 10 8 -1 8 -7 0 -11 6 -8 14 10 25 -13 36 -39 19 -18 -11 -28 -13 -37 -4
-18 14 -19 -18 -2 -39 27 -34 28 -42 5 -35 -17 5 -21 4 -15 -6 6 -9 2 -11 -16
-6 -13 4 -28 7 -34 7 -5 0 -3 5 5 10 13 8 12 10 -3 10 -10 0 -15 5 -12 10 7
11 4 12 -37 15 -15 1 -25 -1 -23 -5 9 -15 -24 -18 -36 -4 -7 8 -19 12 -27 9
-12 -5 -13 -3 -2 10 11 13 15 13 21 3 7 -10 9 -9 9 5 0 9 6 17 14 17 20 0 27
13 14 30 -8 12 -9 12 -4 -2 3 -10 2 -18 -3 -18 -16 0 -20 54 -5 71 8 8 14 19
14 24 0 4 -8 -1 -17 -11 -20 -23 -55 -21 -46 2 3 9 12 12 25 8 14 -4 18 -2 14
5 -9 14 -46 14 -46 0 0 -8 -6 -7 -17 2 -16 13 -16 12 -1 -10 9 -13 14 -30 11
-37 -6 -17 13 -19 23 -3 4 8 9 7 15 -2 13 -21 11 -33 -4 -21 -9 8 -20 7 -39
-2 -24 -13 -26 -12 -21 2 4 9 2 13 -5 8 -6 -3 -14 -1 -18 5 -4 7 -3 10 2 7 5
-3 15 0 22 8 11 13 9 18 -9 16 -3 -1 -5 10 -3 24 2 20 0 23 -11 14 -8 -6 -11
-18 -8 -26 3 -8 1 -14 -4 -14 -21 0 -21 14 -2 39 l21 26 -22 3 c-18 3 -21 8
-16 30 3 15 3 21 0 15 -4 -8 -16 -11 -32 -8 -25 5 -25 5 -4 -4 12 -6 22 -13
22 -16 0 -4 -4 -3 -10 0 -5 3 -10 2 -10 -3 0 -6 -7 -13 -16 -16 -8 -3 -12 -2
-9 3 3 5 1 12 -4 15 -5 3 -11 0 -14 -7 -6 -17 19 -51 31 -43 6 3 9 -2 8 -11
-4 -25 -23 -27 -29 -2 -4 14 -11 20 -21 16 -25 -10 -25 18 1 43 23 23 24 25 7
37 -10 7 -14 13 -9 13 5 0 0 7 -11 15 -19 15 -19 15 1 9 12 -3 16 -2 9 3 -6 4
-12 16 -12 26 -1 9 -3 24 -4 32 -1 14 -11 19 -30 16 -8 -1 -4 23 5 27 4 1 17
2 30 2 18 0 19 -2 7 -10 -11 -7 -11 -10 -2 -10 8 0 10 -5 6 -12 -5 -7 -2 -9 9
-5 11 4 15 0 14 -14 -1 -10 -5 -19 -9 -19 -4 0 -8 -5 -8 -10 0 -7 6 -7 19 -1
14 8 25 6 43 -9 19 -15 25 -16 25 -4 0 8 -7 14 -14 14 -8 0 -12 4 -8 9 3 5 0
13 -6 17 -8 5 -9 3 -4 -6 6 -10 4 -12 -9 -7 -10 4 -20 7 -22 7 -3 0 -2 5 2 12
4 6 -1 17 -12 25 -10 8 -18 16 -16 18 6 13 1 45 -8 45 -5 0 -6 -8 -3 -17 5
-13 2 -15 -11 -10 -10 4 -20 7 -23 7 -3 0 0 6 6 14 9 11 9 16 0 22 -7 4 -9 3
-6 -3 4 -6 0 -13 -8 -17 -8 -3 -12 -12 -9 -20 4 -11 0 -13 -15 -9 -12 3 -21
10 -21 15 0 5 -6 6 -12 2 -10 -6 -9 -3 0 8 8 10 21 14 30 11 13 -5 14 -3 6 6
-9 10 -17 10 -33 1 -17 -9 -22 -8 -28 6 -3 9 0 20 8 25 10 6 10 9 2 9 -16 0
-17 27 -1 32 7 3 5 7 -6 11 -11 5 -15 3 -10 -5 5 -7 -2 -9 -22 -5 -16 3 -23 4
-16 1 14 -6 17 -34 3 -34 -5 0 -7 -9 -4 -20 6 -23 -9 -27 -26 -7 -8 10 -7 17
1 25 16 16 -20 44 -49 37 -12 -3 -28 2 -37 11 -9 8 -16 11 -16 5 0 -11 -58
-12 -66 0 -8 13 17 22 29 10 18 -18 25 -13 32 20 5 21 3 34 -5 39 -9 6 -6 10
10 15 l22 7 -22 15 c-16 12 -19 18 -10 27 9 8 16 5 30 -12 17 -21 19 -21 17
-3 0 11 -4 18 -8 15 -4 -2 -11 0 -14 6 -4 6 -15 8 -25 5 -10 -3 -21 -1 -25 5
-3 6 -11 8 -16 4 -6 -4 -3 -14 7 -25 16 -18 16 -19 0 -19 -9 0 -14 -5 -11 -10
4 -6 16 -8 28 -5 20 5 20 5 4 -5 -9 -6 -15 -15 -12 -21 4 -5 1 -9 -6 -9 -7 0
-4 -6 7 -14 10 -8 16 -18 11 -22 -4 -4 -7 -2 -7 4 0 6 -6 9 -13 6 -8 -3 -20 3
-28 12 -9 12 -10 15 -2 10 9 -5 12 0 10 16 -3 28 -16 39 -40 32 -11 -4 -17 0
-17 11 0 9 -4 13 -10 10 -6 -3 -7 1 -4 9 5 12 11 13 24 6 11 -6 22 -15 25 -20
11 -18 25 -11 23 13 0 12 1 29 3 37 3 10 -5 16 -24 18 -23 3 -27 7 -21 24 5
16 3 20 -9 15 -9 -3 -14 0 -13 11 0 9 -5 17 -12 17 -8 0 -20 8 -27 18 -8 12
-16 14 -20 8 -3 -6 0 -11 7 -11 10 0 9 -3 -2 -10 -10 -6 -20 -4 -32 7 -17 16
-15 39 3 28 5 -4 19 1 31 9 12 9 16 16 9 16 -7 0 -11 6 -8 13 3 7 -4 19 -15
26 -11 7 -17 8 -13 2 3 -6 1 -11 -4 -11 -10 0 -15 14 -12 33 1 5 -3 6 -8 3 -5
-3 -7 -16 -3 -28 4 -17 2 -20 -12 -15 -11 5 -15 3 -10 -4 12 -21 -19 -4 -33
18 -13 19 -12 20 12 16 16 -4 25 -1 25 7 0 7 -7 10 -16 6 -14 -5 -15 -4 -4 9
11 13 10 14 -4 9 -21 -8 -17 27 7 54 9 10 17 22 17 27 0 5 -6 1 -13 -10 -8
-10 -19 -15 -26 -11 -6 4 -14 0 -18 -9 -3 -10 0 -21 7 -25 8 -5 9 -9 1 -14 -6
-4 -11 -3 -11 2 0 5 -14 8 -30 7 -17 -1 -33 2 -36 7 -3 4 6 8 20 8 16 0 32 9
42 25 17 27 13 56 -8 54 -10 0 -10 -2 0 -6 19 -7 14 -23 -8 -23 -11 0 -18 6
-16 13 1 6 1 9 -1 5 -7 -12 -33 -9 -33 3 0 8 -5 8 -15 -1 -9 -8 -15 -8 -15 -2
0 16 -837 14 -843 -1z m53 -16 c0 -5 -7 -12 -16 -15 -14 -5 -15 -4 -4 9 14 17
20 19 20 6z m770 -15 c0 -3 -4 -8 -10 -11 -5 -3 -10 -1 -10 4 0 6 5 11 10 11
6 0 10 -2 10 -4z m40 0 c0 -3 -4 -8 -10 -11 -5 -3 -10 -1 -10 4 0 6 5 11 10
11 6 0 10 -2 10 -4z m40 -6 c0 -5 -4 -10 -9 -10 -6 0 -13 5 -16 10 -3 6 1 10
9 10 9 0 16 -4 16 -10z m-790 -33 c0 -7 -4 -6 -10 3 -8 12 -10 12 -10 1 0 -8
-3 -12 -6 -8 -9 9 6 28 17 22 5 -4 9 -12 9 -18z m228 -4 c-10 -2 -26 -2 -35 0
-10 3 -2 5 17 5 19 0 27 -2 18 -5z m522 3 c0 -3 -4 -8 -10 -11 -5 -3 -10 -1
-10 4 0 6 5 11 10 11 6 0 10 -2 10 -4z m-730 -56 c0 -4 -7 -7 -15 -7 -8 0 -12
4 -9 9 3 4 1 8 -5 8 -6 0 -8 7 -4 16 6 15 8 15 20 -2 7 -10 13 -21 13 -24z
m798 13 c-10 -2 -28 -2 -40 0 -13 2 -5 4 17 4 22 1 32 -1 23 -4z m-68 -33 c0
-5 -5 -10 -11 -10 -5 0 -7 5 -4 10 3 6 8 10 11 10 2 0 4 -4 4 -10z m35 0 c3
-5 -1 -10 -10 -10 -9 0 -13 5 -10 10 3 6 8 10 10 10 2 0 7 -4 10 -10z m45 2
c0 -13 -12 -22 -22 -16 -10 6 -1 24 13 24 5 0 9 -4 9 -8z m-809 -33 c-9 -22
-10 -22 -10 -3 -1 11 2 24 6 27 12 12 14 0 4 -24z m227 24 c-10 -2 -26 -2 -35
0 -10 3 -2 5 17 5 19 0 27 -2 18 -5z m702 -47 c-5 -4 -16 -4 -25 1 -16 9 -16
11 1 28 17 17 18 17 25 -1 4 -11 3 -23 -1 -28z m-200 14 c0 -5 -5 -10 -11 -10
-5 0 -7 5 -4 10 3 6 8 10 11 10 2 0 4 -4 4 -10z m40 0 c0 -5 -7 -10 -16 -10
-8 0 -12 5 -9 10 3 6 10 10 16 10 5 0 9 -4 9 -10z m40 0 c0 -5 -7 -10 -15 -10
-8 0 -15 5 -15 10 0 6 7 10 15 10 8 0 15 -4 15 -10z m44 1 c3 -5 -2 -12 -11
-15 -14 -6 -14 -8 3 -21 11 -8 14 -15 7 -15 -7 0 -16 -1 -20 -2 -5 -2 -9 12
-10 30 -1 31 18 45 31 23z m-826 -26 c-3 -3 -9 2 -12 12 -6 14 -5 15 5 6 7 -7
10 -15 7 -18z m-123 -15 c3 -5 1 -10 -4 -10 -6 0 -11 5 -11 10 0 6 2 10 4 10
3 0 8 -4 11 -10z m40 0 c3 -5 1 -10 -4 -10 -6 0 -11 5 -11 10 0 6 2 10 4 10 3
0 8 -4 11 -10z m785 0 c0 -5 -5 -10 -11 -10 -5 0 -7 5 -4 10 3 6 8 10 11 10 2
0 4 -4 4 -10z m40 0 c0 -5 -7 -10 -16 -10 -8 0 -12 5 -9 10 3 6 10 10 16 10 5
0 9 -4 9 -10z m40 0 c0 -5 -7 -10 -15 -10 -8 0 -15 5 -15 10 0 6 7 10 15 10 8
0 15 -4 15 -10z m104 -37 c8 -20 -26 -24 -41 -6 -10 13 -16 15 -19 6 -6 -15
-34 -18 -34 -4 0 20 87 23 94 4z m-1019 -3 c3 -5 1 -10 -4 -10 -6 0 -11 5 -11
10 0 6 2 10 4 10 3 0 8 -4 11 -10z m50 0 c3 -5 1 -10 -4 -10 -6 0 -11 5 -11
10 0 6 2 10 4 10 3 0 8 -4 11 -10z m785 0 c0 -5 -4 -10 -10 -10 -5 0 -10 5
-10 10 0 6 5 10 10 10 6 0 10 -4 10 -10z m40 0 c0 -5 -4 -10 -10 -10 -5 0 -10
5 -10 10 0 6 5 10 10 10 6 0 10 -4 10 -10z m40 0 c0 -5 -7 -10 -15 -10 -8 0
-15 5 -15 10 0 6 7 10 15 10 8 0 15 -4 15 -10z m160 0 c0 -5 -6 -10 -14 -10
-8 0 -18 5 -21 10 -3 6 3 10 14 10 12 0 21 -4 21 -10z m-973 -52 c-3 -7 -5 -2
-5 12 0 14 2 19 5 13 2 -7 2 -19 0 -25z m900 18 c1 -1 -2 -8 -7 -16 -8 -12
-13 -11 -30 8 l-21 23 28 -7 c15 -4 29 -7 30 -8z m87 1 c3 -4 3 -5 -1 -2 -3 3
-11 -2 -17 -11 -10 -14 -14 -13 -29 4 -17 19 -17 19 12 18 16 -1 32 -5 35 -9z
m-1039 -7 c3 -5 1 -10 -4 -10 -6 0 -11 5 -11 10 0 6 2 10 4 10 3 0 8 -4 11
-10z m785 6 c0 -3 -4 -8 -10 -11 -5 -3 -10 -1 -10 4 0 6 5 11 10 11 6 0 10 -2
10 -4z m40 -6 c0 -5 -4 -10 -10 -10 -5 0 -10 5 -10 10 0 6 5 10 10 10 6 0 10
-4 10 -10z m40 0 c0 -5 -7 -10 -15 -10 -8 0 -15 5 -15 10 0 6 7 10 15 10 8 0
15 -4 15 -10z m40 -41 c0 -5 -7 -9 -15 -9 -15 0 -20 12 -9 23 8 8 24 -1 24
-14z m143 5 c-6 -16 -33 -27 -33 -13 0 6 -14 7 -37 3 -26 -4 -35 -3 -28 4 9
10 44 16 86 17 9 1 15 -5 12 -11z m56 -6 c-11 -20 -11 -20 -33 -12 -21 8 -5
30 23 30 16 0 18 -4 10 -18z m-982 -25 c-3 -10 -5 -4 -5 12 0 17 2 24 5 18 2
-7 2 -21 0 -30z m703 27 c0 -5 -4 -10 -10 -10 -5 0 -10 5 -10 10 0 6 5 10 10
10 6 0 10 -4 10 -10z m40 0 c0 -5 -7 -10 -15 -10 -8 0 -15 5 -15 10 0 6 7 10
15 10 8 0 15 -4 15 -10z m-72 -49 c3 -8 -1 -12 -9 -9 -7 2 -15 10 -17 17 -3 8
1 12 9 9 7 -2 15 -10 17 -17z m112 9 c0 -5 -7 -10 -15 -10 -8 0 -15 5 -15 10
0 6 7 10 15 10 8 0 15 -4 15 -10z m70 2 c0 -14 -11 -21 -26 -15 -21 8 -17 23
6 23 11 0 20 -4 20 -8z m50 -2 c0 -5 -7 -10 -15 -10 -8 0 -15 5 -15 10 0 6 7
10 15 10 8 0 15 -4 15 -10z m-23 -46 c-3 -4 -14 -3 -24 0 -15 6 -15 8 -3 16
16 10 39 -4 27 -16z m63 -4 c-6 -4 -8 -14 -4 -23 4 -13 1 -17 -15 -17 -12 0
-21 5 -21 10 0 6 5 10 11 10 6 0 9 6 6 13 -2 6 -11 11 -18 9 -8 -1 -6 4 5 13
15 11 23 12 33 3 10 -8 11 -13 3 -18z m30 20 c0 -5 -2 -10 -4 -10 -3 0 -8 5
-11 10 -3 6 -1 10 4 10 6 0 11 -4 11 -10z m-270 -4 c0 -3 -4 -8 -10 -11 -5 -3
-10 -1 -10 4 0 6 5 11 10 11 6 0 10 -2 10 -4z m40 -6 c0 -5 -7 -10 -15 -10 -8
0 -15 5 -15 10 0 6 7 10 15 10 8 0 15 -4 15 -10z m80 0 c0 -5 -7 -10 -15 -10
-8 0 -15 5 -15 10 0 6 7 10 15 10 8 0 15 -4 15 -10z m40 -34 c0 -8 -4 -17 -9
-21 -12 -7 -24 12 -16 25 9 15 25 12 25 -4z m-80 -6 c0 -5 -7 -10 -15 -10 -8
0 -15 5 -15 10 0 6 7 10 15 10 8 0 15 -4 15 -10z m-46 -41 c-3 -5 -10 -7 -15
-3 -5 3 -7 10 -3 15 3 5 10 7 15 3 5 -3 7 -10 3 -15z m80 0 c-3 -5 -10 -7 -15
-3 -5 3 -7 10 -3 15 3 5 10 7 15 3 5 -3 7 -10 3 -15z m79 5 c-3 -15 -20 -15
-26 0 -4 9 0 13 11 12 9 -2 16 -7 15 -12z m57 4 c0 -5 0 -13 0 -19 0 -8 -4 -9
-13 0 -8 6 -16 9 -19 6 -2 -3 -5 1 -5 9 0 7 9 13 19 12 10 -1 18 -4 18 -8z
m-250 -2 c0 -3 -4 -8 -10 -11 -5 -3 -10 -1 -10 4 0 6 5 11 10 11 6 0 10 -2 10
-4z m368 -49 c-7 -14 -13 -17 -16 -9 -2 6 -8 9 -14 6 -5 -3 -4 3 3 14 18 28
43 18 27 -11z m-294 2 c-3 -5 -10 -7 -15 -3 -5 3 -7 10 -3 15 3 5 10 7 15 3 5
-3 7 -10 3 -15z m84 10 c-2 -6 -8 -10 -13 -10 -5 0 -11 4 -13 10 -2 6 4 11 13
11 9 0 15 -5 13 -11z m77 2 c7 -12 -12 -24 -25 -16 -11 7 -4 25 10 25 5 0 11
-4 15 -9z m78 3 c11 -11 -3 -24 -18 -18 -8 4 -12 10 -9 15 6 11 18 12 27 3z
m123 -10 c10 -8 15 -13 9 -11 -5 2 -19 1 -30 -4 -16 -6 -17 -8 -3 -8 9 -1 25
-12 36 -25 17 -22 20 -23 35 -9 18 18 39 9 30 -14 -5 -12 -3 -14 8 -8 8 4 11
4 6 0 -4 -5 0 -18 8 -31 13 -20 12 -24 -3 -35 -9 -7 -14 -9 -10 -5 4 5 0 15
-10 22 -15 12 -15 15 -2 24 12 8 11 10 -7 10 -12 0 -27 -9 -33 -20 -6 -11 -15
-18 -21 -15 -15 10 -10 22 11 28 18 5 30 29 13 26 -20 -3 -34 2 -28 10 3 5 1
12 -5 16 -5 3 -10 1 -10 -6 0 -8 -4 -8 -15 1 -11 9 -15 9 -15 1 0 -7 -4 -10
-8 -7 -5 3 -7 -9 -5 -27 2 -18 0 -26 -3 -19 -3 6 -12 12 -19 12 -8 0 -17 6
-21 13 -4 6 -4 9 0 6 8 -7 57 37 55 49 -3 19 2 42 9 42 5 0 17 -7 28 -16z
m-439 -20 c-3 -3 -12 -4 -19 -1 -8 3 -5 6 6 6 11 1 17 -2 13 -5z m513 -4 c0
-5 -5 -10 -11 -10 -5 0 -7 5 -4 10 3 6 8 10 11 10 2 0 4 -4 4 -10z m-475 -10
c3 -5 -1 -10 -10 -10 -9 0 -13 5 -10 10 3 6 8 10 10 10 2 0 7 -4 10 -10z m59
-11 c-3 -5 -10 -7 -15 -3 -5 3 -7 10 -3 15 3 5 10 7 15 3 5 -3 7 -10 3 -15z
m77 8 c-1 -12 -15 -9 -19 4 -3 6 1 10 8 8 6 -3 11 -8 11 -12z m102 7 c3 -3 3
-12 0 -20 -4 -11 -9 -12 -19 -3 -8 6 -11 15 -8 20 6 10 18 12 27 3z m80 0 c9
-9 -4 -35 -14 -28 -5 3 -9 12 -9 20 0 14 12 19 23 8z m-353 -44 c0 -5 -4 -10
-10 -10 -5 0 -10 5 -10 10 0 6 5 10 10 10 6 0 10 -4 10 -10z m60 0 c0 -5 -4
-10 -10 -10 -5 0 -10 5 -10 10 0 6 5 10 10 10 6 0 10 -4 10 -10z m60 2 c0 -13
-12 -22 -22 -16 -10 6 -1 24 13 24 5 0 9 -4 9 -8z m71 -5 c-1 -12 -15 -9 -19
4 -3 6 1 10 8 8 6 -3 11 -8 11 -12z m59 3 c0 -5 -4 -10 -10 -10 -5 0 -10 5
-10 10 0 6 5 10 10 10 6 0 10 -4 10 -10z m62 -5 c0 -5 -5 -11 -11 -13 -6 -2
-11 4 -11 13 0 9 5 15 11 13 6 -2 11 -8 11 -13z m111 -4 c-4 -3 -11 -10 -15
-15 -5 -5 -8 0 -8 12 0 15 4 20 16 15 9 -3 12 -9 7 -12z m-468 -31 c3 -5 1
-10 -4 -10 -6 0 -11 5 -11 10 0 6 2 10 4 10 3 0 8 -4 11 -10z m85 0 c0 -5 -7
-10 -16 -10 -8 0 -12 5 -9 10 3 6 10 10 16 10 5 0 9 -4 9 -10z m120 0 c0 -5
-7 -10 -15 -10 -8 0 -15 5 -15 10 0 6 7 10 15 10 8 0 15 -4 15 -10z m75 0 c3
-5 -1 -10 -9 -10 -9 0 -16 5 -16 10 0 6 4 10 9 10 6 0 13 -4 16 -10z m37 -5
c0 -5 -5 -11 -11 -13 -6 -2 -11 4 -11 13 0 9 5 15 11 13 6 -2 11 -8 11 -13z
m78 -1 c0 -8 -4 -12 -10 -9 -5 3 -10 10 -10 16 0 5 5 9 10 9 6 0 10 -7 10 -16z
m236 -13 c-2 -36 -14 -50 -26 -31 -8 12 -10 12 -10 2 0 -8 9 -16 20 -19 21 -6
26 -18 11 -27 -5 -3 -17 6 -26 21 -17 25 -17 27 0 39 15 11 16 16 5 29 -10 13
-9 15 8 15 15 0 19 -6 18 -29z m-80 -29 c1 -18 -2 -20 -12 -11 -17 14 -18 42
-1 37 6 -3 13 -14 13 -26z m-506 8 c0 -5 -4 -10 -10 -10 -5 0 -10 5 -10 10 0
6 5 10 10 10 6 0 10 -4 10 -10z m60 0 c0 -5 -7 -10 -15 -10 -8 0 -15 5 -15 10
0 6 7 10 15 10 8 0 15 -4 15 -10z m60 0 c0 -5 -7 -10 -15 -10 -8 0 -15 5 -15
10 0 6 7 10 15 10 8 0 15 -4 15 -10z m100 0 c0 -5 -7 -10 -15 -10 -8 0 -15 5
-15 10 0 6 7 10 15 10 8 0 15 -4 15 -10z m90 -4 c0 -8 6 -16 13 -19 6 -2 9 -8
4 -12 -4 -5 -14 0 -22 11 -17 23 -19 34 -5 34 6 0 10 -6 10 -14z m120 -1 c0
-9 -6 -12 -15 -9 -8 4 -15 10 -15 15 0 5 7 9 15 9 8 0 15 -7 15 -15z m194 -37
c-10 -11 -12 -18 -5 -23 16 -9 14 -25 -3 -25 -23 0 -26 27 -5 46 13 12 16 21
9 28 -5 5 -10 14 -10 20 0 5 6 1 14 -10 13 -16 13 -21 0 -36z m-664 22 c0 -5
-4 -10 -10 -10 -5 0 -10 5 -10 10 0 6 5 10 10 10 6 0 10 -4 10 -10z m424 -28
c-22 -5 -31 7 -14 18 9 6 17 5 22 -3 4 -7 1 -13 -8 -15z m93 21 c-4 -3 -2 -11
3 -18 7 -8 2 -10 -20 -7 -36 5 -37 10 -7 22 28 11 32 12 24 3z m-1203 -11 c10
-17 15 -62 5 -57 -5 4 -7 11 -4 16 4 5 1 9 -6 9 -7 0 -9 3 -6 7 4 3 2 12 -4
20 -8 9 -8 13 -1 13 6 0 13 -4 16 -8z m806 -2 c0 -5 -7 -10 -15 -10 -8 0 -15
5 -15 10 0 6 7 10 15 10 8 0 15 -4 15 -10z m120 0 c0 -5 -7 -10 -15 -10 -8 0
-15 5 -15 10 0 6 7 10 15 10 8 0 15 -4 15 -10z m70 0 c0 -5 -4 -10 -10 -10 -5
0 -10 5 -10 10 0 6 5 10 10 10 6 0 10 -4 10 -10z m280 -21 c0 -14 -27 -10 -33
5 -4 10 0 12 14 9 10 -3 19 -9 19 -14z m-550 1 c0 -5 -4 -10 -10 -10 -5 0 -10
5 -10 10 0 6 5 10 10 10 6 0 10 -4 10 -10z m-40 -14 c0 -3 -4 -8 -10 -11 -5
-3 -10 -1 -10 4 0 6 5 11 10 11 6 0 10 -2 10 -4z m80 -6 c0 -5 -7 -10 -16 -10
-8 0 -12 5 -9 10 3 6 10 10 16 10 5 0 9 -4 9 -10z m120 0 c0 -5 -7 -10 -15
-10 -8 0 -15 5 -15 10 0 6 7 10 15 10 8 0 15 -4 15 -10z m75 0 c3 -5 -1 -10
-9 -10 -9 0 -16 5 -16 10 0 6 4 10 9 10 6 0 13 -4 16 -10z m65 0 c0 -5 -4 -10
-10 -10 -5 0 -10 5 -10 10 0 6 5 10 10 10 6 0 10 -4 10 -10z m50 0 c0 -5 -4
-10 -10 -10 -5 0 -10 5 -10 10 0 6 5 10 10 10 6 0 10 -4 10 -10z m100 0 c0 -5
-4 -10 -9 -10 -6 0 -13 5 -16 10 -3 6 1 10 9 10 9 0 16 -4 16 -10z m60 0 c0
-5 -7 -10 -15 -10 -8 0 -15 5 -15 10 0 6 7 10 15 10 8 0 15 -4 15 -10z m84
-19 c3 -5 0 -11 -8 -14 -15 -6 -26 1 -26 15 0 11 27 10 34 -1z m-164 -28 c0
-13 -3 -13 -15 -3 -8 7 -12 16 -9 21 8 13 24 1 24 -18z m119 13 c9 -10 8 -15
-3 -19 -16 -7 -26 1 -26 20 0 17 14 17 29 -1z m-629 0 c0 -3 -4 -8 -10 -11 -5
-3 -10 -1 -10 4 0 6 5 11 10 11 6 0 10 -2 10 -4z m80 -6 c0 -5 -4 -10 -10 -10
-5 0 -10 5 -10 10 0 6 5 10 10 10 6 0 10 -4 10 -10z m80 0 c0 -5 -7 -10 -15
-10 -8 0 -15 5 -15 10 0 6 7 10 15 10 8 0 15 -4 15 -10z m120 0 c0 -5 -7 -10
-15 -10 -8 0 -15 5 -15 10 0 6 7 10 15 10 8 0 15 -4 15 -10z m70 0 c0 -5 -4
-10 -10 -10 -5 0 -10 5 -10 10 0 6 5 10 10 10 6 0 10 -4 10 -10z m62 -2 c-9
-9 -15 -9 -24 0 -9 9 -7 12 12 12 19 0 21 -3 12 -12z m-1027 -18 c3 -5 1 -10
-4 -10 -6 0 -11 5 -11 10 0 6 2 10 4 10 3 0 8 -4 11 -10z m930 -10 c3 -5 -1
-10 -9 -10 -9 0 -16 5 -16 10 0 6 4 10 9 10 6 0 13 -4 16 -10z m71 -17 c-10
-10 -19 5 -10 18 6 11 8 11 12 0 2 -7 1 -15 -2 -18z m164 12 c0 -8 -7 -15 -15
-15 -8 0 -15 7 -15 15 0 8 7 15 15 15 8 0 15 -7 15 -15z m40 -6 c0 -5 -7 -9
-15 -9 -15 0 -20 12 -9 23 8 8 24 -1 24 -14z m85 11 c8 -13 -12 -40 -29 -40
-7 0 -6 4 2 9 11 7 10 9 -3 15 -9 3 -13 10 -10 16 8 13 32 13 40 0z m145 -11
c0 -5 -4 -9 -10 -9 -5 0 -10 7 -10 16 0 8 5 12 10 9 6 -3 10 -10 10 -16z
m-700 1 c0 -5 -4 -10 -9 -10 -6 0 -13 5 -16 10 -3 6 1 10 9 10 9 0 16 -4 16
-10z m80 0 c0 -5 -7 -10 -15 -10 -8 0 -15 5 -15 10 0 6 7 10 15 10 8 0 15 -4
15 -10z m270 0 c0 -5 -4 -10 -9 -10 -6 0 -13 5 -16 10 -3 6 1 10 9 10 9 0 16
-4 16 -10z m-215 -20 c-3 -5 -10 -10 -16 -10 -5 0 -9 5 -9 10 0 6 7 10 16 10
8 0 12 -4 9 -10z m-105 -10 c0 -5 -4 -10 -10 -10 -5 0 -10 5 -10 10 0 6 5 10
10 10 6 0 10 -4 10 -10z m161 -13 c-13 -13 -26 -3 -16 12 3 6 11 8 17 5 6 -4
6 -10 -1 -17z m119 2 c0 -5 -4 -9 -10 -9 -5 0 -10 7 -10 16 0 8 5 12 10 9 6
-3 10 -10 10 -16z m77 -5 c-9 -9 -28 6 -21 18 4 6 10 6 17 -1 6 -6 8 -13 4
-17z m61 7 c3 -8 -1 -12 -9 -9 -7 2 -15 10 -17 17 -3 8 1 12 9 9 7 -2 15 -10
17 -17z m62 4 c10 -13 9 -15 -9 -15 -12 0 -21 6 -21 15 0 8 4 15 9 15 5 0 14
-7 21 -15z m78 -3 c2 -7 -3 -12 -12 -12 -9 0 -16 -4 -16 -10 0 -5 5 -10 11
-10 8 0 7 -5 -1 -15 -17 -20 -36 -3 -25 22 8 17 11 26 14 39 2 10 24 -1 29
-14z m-668 4 c0 -3 -4 -8 -10 -11 -5 -3 -10 -1 -10 4 0 6 5 11 10 11 6 0 10
-2 10 -4z m40 -6 c0 -5 -4 -10 -9 -10 -6 0 -13 5 -16 10 -3 6 1 10 9 10 9 0
16 -4 16 -10z m74 -41 c-3 -5 -10 -7 -15 -3 -5 3 -7 10 -3 15 3 5 10 7 15 3 5
-3 7 -10 3 -15z m77 -2 c-13 -13 -26 -3 -16 12 3 6 11 8 17 5 6 -4 6 -10 -1
-17z m159 8 c0 -8 -4 -15 -10 -15 -5 0 -10 7 -10 15 0 8 5 15 10 15 6 0 10 -7
10 -15z m77 -11 c-9 -9 -28 6 -21 18 4 6 10 6 17 -1 6 -6 8 -13 4 -17z m83 11
c0 -8 -4 -15 -9 -15 -13 0 -22 16 -14 24 11 11 23 6 23 -9z m58 -4 c3 -8 -1
-12 -9 -9 -7 2 -15 10 -17 17 -3 8 1 12 9 9 7 -2 15 -10 17 -17z m137 8 c10
-15 -1 -23 -20 -15 -9 3 -13 10 -10 16 8 13 22 13 30 -1z m75 -4 c0 -8 -4 -15
-10 -15 -5 0 -10 7 -10 15 0 8 5 15 10 15 6 0 10 -7 10 -15z m-510 -5 c0 -5
-4 -10 -10 -10 -5 0 -10 5 -10 10 0 6 5 10 10 10 6 0 10 -4 10 -10z m-116 -41
c-3 -5 -10 -7 -15 -3 -5 3 -7 10 -3 15 3 5 10 7 15 3 5 -3 7 -10 3 -15z m80 0
c-3 -5 -10 -7 -15 -3 -5 3 -7 10 -3 15 3 5 10 7 15 3 5 -3 7 -10 3 -15z m76 6
c0 -8 -4 -15 -10 -15 -5 0 -10 7 -10 15 0 8 5 15 10 15 6 0 10 -7 10 -15z m80
0 c0 -8 -4 -15 -9 -15 -13 0 -22 16 -14 24 11 11 23 6 23 -9z m80 0 c0 -8 -4
-15 -9 -15 -13 0 -22 16 -14 24 11 11 23 6 23 -9z m159 -11 c3 -16 1 -17 -13
-5 -19 16 -21 34 -3 29 6 -3 14 -13 16 -24z m53 11 c0 -5 -5 -11 -11 -13 -6
-2 -11 4 -11 13 0 9 5 15 11 13 6 -2 11 -8 11 -13z m63 6 c7 -12 -12 -24 -25
-16 -11 7 -4 25 10 25 5 0 11 -4 15 -9z m75 -6 c0 -8 -4 -15 -10 -15 -5 0 -10
7 -10 15 0 8 5 15 10 15 6 0 10 -7 10 -15z m75 4 c12 -19 -5 -23 -22 -6 -16
16 -16 17 -1 17 9 0 20 -5 23 -11z m-815 -3 c0 -11 -19 -15 -25 -6 -3 5 1 10
9 10 9 0 16 -2 16 -4z m780 -42 c0 -18 -14 -18 -29 0 -9 11 -9 15 1 19 17 6
28 -1 28 -19z m-826 -5 c-3 -5 -10 -7 -15 -3 -5 3 -7 10 -3 15 3 5 10 7 15 3
5 -3 7 -10 3 -15z m160 0 c-3 -5 -10 -7 -15 -3 -5 3 -7 10 -3 15 3 5 10 7 15
3 5 -3 7 -10 3 -15z m77 8 c-1 -12 -15 -9 -19 4 -3 6 1 10 8 8 6 -3 11 -8 11
-12z m159 -2 c0 -8 -4 -15 -9 -15 -13 0 -22 16 -14 24 11 11 23 6 23 -9z m118
-4 c3 -8 -1 -12 -9 -9 -7 2 -15 10 -17 17 -3 8 1 12 9 9 7 -2 15 -10 17 -17z
m53 6 c-1 -12 -15 -9 -19 4 -3 6 1 10 8 8 6 -3 11 -8 11 -12z m67 -6 c3 -8 -1
-12 -9 -9 -7 2 -15 10 -17 17 -3 8 1 12 9 9 7 -2 15 -10 17 -17z m54 4 c0 -5
-5 -11 -11 -13 -6 -2 -11 4 -11 13 0 9 5 15 11 13 6 -2 11 -8 11 -13z m78 0
c0 -8 -4 -15 -10 -15 -5 0 -10 7 -10 15 0 8 5 15 10 15 6 0 10 -7 10 -15z
m285 5 c3 -5 1 -10 -4 -10 -6 0 -11 5 -11 10 0 6 2 10 4 10 3 0 8 -4 11 -10z
m-100 -42 c-3 -13 4 -22 20 -28 16 -6 23 -15 19 -24 -7 -17 -34 -10 -34 9 0 7
-10 19 -22 27 -22 15 -19 35 6 35 9 0 13 -8 11 -19z m-870 2 c3 -5 -1 -10 -10
-10 -9 0 -13 5 -10 10 3 6 8 10 10 10 2 0 7 -4 10 -10z m235 -6 c0 -8 -4 -12
-10 -9 -5 3 -10 10 -10 16 0 5 5 9 10 9 6 0 10 -7 10 -16z m120 1 c0 -8 -4
-15 -9 -15 -13 0 -22 16 -14 24 11 11 23 6 23 -9z m118 4 c-2 -6 -8 -10 -13
-10 -5 0 -11 4 -13 10 -2 6 4 11 13 11 9 0 15 -5 13 -11z m113 -2 c-1 -12 -15
-9 -19 4 -3 6 1 10 8 8 6 -3 11 -8 11 -12z m81 -2 c0 -5 -5 -11 -11 -13 -6 -2
-11 4 -11 13 0 9 5 15 11 13 6 -2 11 -8 11 -13z m119 0 c-1 -15 -24 -12 -29 3
-3 9 2 13 12 10 10 -1 17 -7 17 -13z m-1481 -5 c0 -5 -5 -10 -11 -10 -5 0 -7
5 -4 10 3 6 8 10 11 10 2 0 4 -4 4 -10z m872 -15 c0 -5 -5 -11 -11 -13 -6 -2
-11 4 -11 13 0 9 5 15 11 13 6 -2 11 -8 11 -13z m-212 -15 c0 -5 -7 -10 -16
-10 -8 0 -12 5 -9 10 3 6 10 10 16 10 5 0 9 -4 9 -10z m75 0 c3 -5 -1 -10 -10
-10 -9 0 -13 5 -10 10 3 6 8 10 10 10 2 0 7 -4 10 -10z m80 0 c3 -5 -1 -10 -9
-10 -9 0 -16 5 -16 10 0 6 4 10 9 10 6 0 13 -4 16 -10z m195 -6 c0 -8 -4 -12
-10 -9 -5 3 -10 10 -10 16 0 5 5 9 10 9 6 0 10 -7 10 -16z m80 1 c0 -9 -6 -12
-15 -9 -8 4 -12 10 -9 15 8 14 24 10 24 -6z m151 2 c-1 -12 -15 -9 -19 4 -3 6
1 10 8 8 6 -3 11 -8 11 -12z m80 0 c-1 -12 -15 -9 -19 4 -3 6 1 10 8 8 6 -3
11 -8 11 -12z m119 -2 c0 -8 -4 -15 -9 -15 -13 0 -22 16 -14 24 11 11 23 6 23
-9z m80 -1 c0 -17 -22 -14 -28 4 -2 7 3 12 12 12 9 0 16 -7 16 -16z m-940 -4
c0 -5 -4 -10 -10 -10 -5 0 -10 5 -10 10 0 6 5 10 10 10 6 0 10 -4 10 -10z
m360 0 c0 -5 -4 -10 -10 -10 -5 0 -10 5 -10 10 0 6 5 10 10 10 6 0 10 -4 10
-10z m220 0 c0 -5 -4 -10 -10 -10 -5 0 -10 5 -10 10 0 6 5 10 10 10 6 0 10 -4
10 -10z m-1180 -10 c0 -5 -8 -10 -17 -10 -15 0 -16 2 -3 10 19 12 20 12 20 0z
m1595 -30 c-5 -8 -11 -8 -17 -2 -6 6 -7 16 -3 22 5 8 11 8 17 2 6 -6 7 -16 3
-22z m-955 10 c0 -5 -7 -10 -16 -10 -8 0 -12 5 -9 10 3 6 10 10 16 10 5 0 9
-4 9 -10z m80 0 c0 -5 -7 -10 -16 -10 -8 0 -12 5 -9 10 3 6 10 10 16 10 5 0 9
-4 9 -10z m70 0 c0 -5 -4 -10 -10 -10 -5 0 -10 5 -10 10 0 6 5 10 10 10 6 0
10 -4 10 -10z m120 0 c0 -5 -4 -10 -10 -10 -5 0 -10 5 -10 10 0 6 5 10 10 10
6 0 10 -4 10 -10z m80 0 c0 -5 -4 -10 -10 -10 -5 0 -10 5 -10 10 0 6 5 10 10
10 6 0 10 -4 10 -10z m80 0 c0 -5 -7 -10 -16 -10 -8 0 -12 5 -9 10 3 6 10 10
16 10 5 0 9 -4 9 -10z m80 0 c0 -5 -7 -10 -15 -10 -8 0 -15 5 -15 10 0 6 7 10
15 10 8 0 15 -4 15 -10z m80 0 c0 -5 -7 -10 -15 -10 -8 0 -15 5 -15 10 0 6 7
10 15 10 8 0 15 -4 15 -10z m75 0 c3 -5 -1 -10 -9 -10 -9 0 -16 5 -16 10 0 6
4 10 9 10 6 0 13 -4 16 -10z m115 -5 c0 -8 -4 -15 -10 -15 -5 0 -10 7 -10 15
0 8 5 15 10 15 6 0 10 -7 10 -15z m80 5 c0 -5 -7 -10 -16 -10 -8 0 -12 5 -9
10 3 6 10 10 16 10 5 0 9 -4 9 -10z m-940 -20 c0 -5 -4 -10 -10 -10 -5 0 -10
5 -10 10 0 6 5 10 10 10 6 0 10 -4 10 -10z m-80 -20 c0 -5 -5 -10 -11 -10 -5
0 -7 5 -4 10 3 6 8 10 11 10 2 0 4 -4 4 -10z m120 0 c0 -5 -4 -10 -10 -10 -5
0 -10 5 -10 10 0 6 5 10 10 10 6 0 10 -4 10 -10z m80 0 c0 -5 -4 -10 -10 -10
-5 0 -10 5 -10 10 0 6 5 10 10 10 6 0 10 -4 10 -10z m190 0 c0 -5 -4 -10 -10
-10 -5 0 -10 5 -10 10 0 6 5 10 10 10 6 0 10 -4 10 -10z m80 0 c0 -5 -4 -10
-10 -10 -5 0 -10 5 -10 10 0 6 5 10 10 10 6 0 10 -4 10 -10z m160 0 c0 -5 -7
-10 -15 -10 -8 0 -15 5 -15 10 0 6 7 10 15 10 8 0 15 -4 15 -10z m80 0 c0 -5
-7 -10 -15 -10 -8 0 -15 5 -15 10 0 6 7 10 15 10 8 0 15 -4 15 -10z m80 0 c0
-5 -7 -10 -15 -10 -8 0 -15 5 -15 10 0 6 7 10 15 10 8 0 15 -4 15 -10z m70 0
c0 -5 -4 -10 -10 -10 -5 0 -10 5 -10 10 0 6 5 10 10 10 6 0 10 -4 10 -10z
m120 0 c0 -5 -7 -10 -16 -10 -8 0 -12 5 -9 10 3 6 10 10 16 10 5 0 9 -4 9 -10z
m120 0 c0 -5 -7 -10 -15 -10 -8 0 -15 5 -15 10 0 6 7 10 15 10 8 0 15 -4 15
-10z m80 0 c0 -5 -7 -10 -15 -10 -8 0 -15 5 -15 10 0 6 7 10 15 10 8 0 15 -4
15 -10z m60 -11 c0 -19 -1 -19 -16 -5 -8 9 -20 13 -26 10 -7 -4 -8 -2 -4 4 13
21 46 14 46 -9z m-1200 -9 c0 -5 -4 -10 -10 -10 -5 0 -10 5 -10 10 0 6 5 10
10 10 6 0 10 -4 10 -10z m295 0 c3 -5 -1 -10 -9 -10 -9 0 -16 5 -16 10 0 6 4
10 9 10 6 0 13 -4 16 -10z m-255 -20 c0 -5 -4 -10 -10 -10 -5 0 -10 5 -10 10
0 6 5 10 10 10 6 0 10 -4 10 -10z m80 0 c0 -5 -7 -10 -16 -10 -8 0 -12 5 -9
10 3 6 10 10 16 10 5 0 9 -4 9 -10z m120 0 c0 -5 -7 -10 -15 -10 -8 0 -15 5
-15 10 0 6 7 10 15 10 8 0 15 -4 15 -10z m150 0 c0 -5 -4 -10 -10 -10 -5 0
-10 5 -10 10 0 6 5 10 10 10 6 0 10 -4 10 -10z m120 0 c0 -5 -4 -10 -10 -10
-5 0 -10 5 -10 10 0 6 5 10 10 10 6 0 10 -4 10 -10z m120 0 c0 -5 -7 -10 -15
-10 -8 0 -15 5 -15 10 0 6 7 10 15 10 8 0 15 -4 15 -10z m80 0 c0 -5 -7 -10
-15 -10 -8 0 -15 5 -15 10 0 6 7 10 15 10 8 0 15 -4 15 -10z m80 0 c0 -5 -7
-10 -15 -10 -8 0 -15 5 -15 10 0 6 7 10 15 10 8 0 15 -4 15 -10z m110 0 c0 -5
-4 -10 -10 -10 -5 0 -10 5 -10 10 0 6 5 10 10 10 6 0 10 -4 10 -10z m80 0 c0
-5 -7 -10 -15 -10 -8 0 -15 5 -15 10 0 6 7 10 15 10 8 0 15 -4 15 -10z m45 0
c-3 -5 -12 -7 -20 -3 -21 7 -19 13 6 13 11 0 18 -4 14 -10z m75 0 c0 -5 -7
-10 -15 -10 -8 0 -15 5 -15 10 0 6 7 10 15 10 8 0 15 -4 15 -10z m85 0 c3 -5
-3 -10 -14 -10 -12 0 -21 5 -21 10 0 6 6 10 14 10 8 0 18 -4 21 -10z m82 -7
c3 -7 -3 -9 -17 -6 -29 8 -37 25 -9 21 12 -1 24 -8 26 -15z m-1877 -13 c0 -11
-4 -20 -9 -20 -7 0 -8 17 -2 38 4 10 11 -2 11 -18z m1180 10 c0 -5 -7 -10 -15
-10 -8 0 -15 5 -15 10 0 6 7 10 15 10 8 0 15 -4 15 -10z m-610 -10 c0 -5 -4
-10 -10 -10 -5 0 -10 5 -10 10 0 6 5 10 10 10 6 0 10 -4 10 -10z m1180 -21 c0
-5 -7 -9 -15 -9 -15 0 -20 12 -9 23 8 8 24 -1 24 -14z m-1140 1 c0 -5 -4 -10
-10 -10 -5 0 -10 5 -10 10 0 6 5 10 10 10 6 0 10 -4 10 -10z m80 0 c0 -5 -4
-10 -10 -10 -5 0 -10 5 -10 10 0 6 5 10 10 10 6 0 10 -4 10 -10z m80 0 c0 -5
-4 -10 -10 -10 -5 0 -10 5 -10 10 0 6 5 10 10 10 6 0 10 -4 10 -10z m160 0 c0
-5 -7 -10 -15 -10 -8 0 -15 5 -15 10 0 6 7 10 15 10 8 0 15 -4 15 -10z m150 0
c0 -5 -4 -10 -10 -10 -5 0 -10 5 -10 10 0 6 5 10 10 10 6 0 10 -4 10 -10z
m120 0 c0 -5 -4 -10 -10 -10 -5 0 -10 5 -10 10 0 6 5 10 10 10 6 0 10 -4 10
-10z m80 0 c0 -5 -7 -10 -15 -10 -8 0 -15 5 -15 10 0 6 7 10 15 10 8 0 15 -4
15 -10z m75 0 c3 -5 -1 -10 -9 -10 -9 0 -16 5 -16 10 0 6 4 10 9 10 6 0 13 -4
16 -10z m115 0 c0 -5 -4 -10 -10 -10 -5 0 -10 5 -10 10 0 6 5 10 10 10 6 0 10
-4 10 -10z m80 0 c0 -5 -4 -10 -10 -10 -5 0 -10 5 -10 10 0 6 5 10 10 10 6 0
10 -4 10 -10z m80 0 c0 -5 -7 -10 -15 -10 -8 0 -15 5 -15 10 0 6 7 10 15 10 8
0 15 -4 15 -10z m40 0 c0 -5 -7 -10 -15 -10 -8 0 -15 5 -15 10 0 6 7 10 15 10
8 0 15 -4 15 -10z m160 0 c0 -5 -7 -10 -15 -10 -8 0 -15 5 -15 10 0 6 7 10 15
10 8 0 15 -4 15 -10z m-1843 -32 c-3 -13 -8 -34 -11 -47 -3 -12 -10 -29 -16
-35 -5 -7 -6 -16 -2 -20 4 -4 0 -6 -8 -4 -8 2 -14 -3 -12 -9 1 -7 -5 -13 -14
-13 -11 0 -8 9 13 37 15 20 29 45 29 55 1 10 2 27 3 38 0 11 6 20 12 20 7 0 9
-9 6 -22z m1883 -8 c8 -15 6 -17 -10 -13 -30 8 -43 29 -20 30 11 1 24 -7 30
-17z m-1300 0 c0 -5 -4 -10 -10 -10 -5 0 -10 5 -10 10 0 6 5 10 10 10 6 0 10
-4 10 -10z m80 0 c0 -5 -4 -10 -10 -10 -5 0 -10 5 -10 10 0 6 5 10 10 10 6 0
10 -4 10 -10z m80 0 c0 -5 -4 -10 -10 -10 -5 0 -10 5 -10 10 0 6 5 10 10 10 6
0 10 -4 10 -10z m80 0 c0 -5 -4 -10 -9 -10 -6 0 -13 5 -16 10 -3 6 1 10 9 10
9 0 16 -4 16 -10z m80 0 c0 -5 -7 -10 -15 -10 -8 0 -15 5 -15 10 0 6 7 10 15
10 8 0 15 -4 15 -10z m110 0 c0 -5 -4 -10 -10 -10 -5 0 -10 5 -10 10 0 6 5 10
10 10 6 0 10 -4 10 -10z m160 0 c0 -5 -4 -10 -10 -10 -5 0 -10 5 -10 10 0 6 5
10 10 10 6 0 10 -4 10 -10z m160 0 c0 -5 -7 -10 -15 -10 -8 0 -15 5 -15 10 0
6 7 10 15 10 8 0 15 -4 15 -10z m110 0 c0 -5 -4 -10 -10 -10 -5 0 -10 5 -10
10 0 6 5 10 10 10 6 0 10 -4 10 -10z m80 0 c0 -5 -4 -10 -10 -10 -5 0 -10 5
-10 10 0 6 5 10 10 10 6 0 10 -4 10 -10z m80 0 c0 -5 -4 -10 -9 -10 -6 0 -13
5 -16 10 -3 6 1 10 9 10 9 0 16 -4 16 -10z m110 0 c0 -5 -7 -10 -15 -10 -8 0
-15 5 -15 10 0 6 7 10 15 10 8 0 15 -4 15 -10z m50 0 c0 -5 -7 -10 -15 -10 -8
0 -15 5 -15 10 0 6 7 10 15 10 8 0 15 -4 15 -10z m54 -14 c30 -27 32 -36 11
-36 -8 0 -15 7 -15 16 0 9 -9 18 -20 21 -11 3 -20 9 -20 14 0 16 18 10 44 -15z
m-744 -6 c0 -5 -4 -10 -10 -10 -5 0 -10 5 -10 10 0 6 5 10 10 10 6 0 10 -4 10
-10z m120 -10 c0 -5 -2 -10 -4 -10 -3 0 -8 5 -11 10 -3 6 -1 10 4 10 6 0 11
-4 11 -10z m490 -11 c0 -5 -7 -9 -15 -9 -15 0 -20 12 -9 23 8 8 24 -1 24 -14z
m-1060 1 c0 -5 -4 -10 -10 -10 -5 0 -10 5 -10 10 0 6 5 10 10 10 6 0 10 -4 10
-10z m80 0 c0 -5 -4 -10 -10 -10 -5 0 -10 5 -10 10 0 6 5 10 10 10 6 0 10 -4
10 -10z m80 0 c0 -5 -4 -10 -10 -10 -5 0 -10 5 -10 10 0 6 5 10 10 10 6 0 10
-4 10 -10z m75 0 c-3 -5 -10 -10 -16 -10 -5 0 -9 5 -9 10 0 6 7 10 16 10 8 0
12 -4 9 -10z m115 0 c0 -5 -4 -10 -10 -10 -5 0 -10 5 -10 10 0 6 5 10 10 10 6
0 10 -4 10 -10z m160 0 c0 -5 -4 -10 -10 -10 -5 0 -10 5 -10 10 0 6 5 10 10
10 6 0 10 -4 10 -10z m120 0 c0 -5 -4 -10 -9 -10 -6 0 -13 5 -16 10 -3 6 1 10
9 10 9 0 16 -4 16 -10z m150 0 c0 -5 -4 -10 -10 -10 -5 0 -10 5 -10 10 0 6 5
10 10 10 6 0 10 -4 10 -10z m-70 -10 c0 -5 -4 -10 -9 -10 -6 0 -13 5 -16 10
-3 6 1 10 9 10 9 0 16 -4 16 -10z m405 -8 c0 -18 -20 -15 -23 4 -3 10 1 15 10
12 7 -3 13 -10 13 -16z m-804 -25 c-13 -13 -26 -3 -16 12 3 6 11 8 17 5 6 -4
6 -10 -1 -17z m276 -3 c-9 -9 -28 6 -21 18 4 6 10 6 17 -1 6 -6 8 -13 4 -17z
m63 22 c0 -11 -19 -15 -25 -6 -3 5 1 10 9 10 9 0 16 -2 16 -4z m100 -6 c0 -5
-5 -10 -11 -10 -5 0 -7 5 -4 10 3 6 8 10 11 10 2 0 4 -4 4 -10z m267 -16 c-9
-9 -28 6 -21 18 4 6 10 6 17 -1 6 -6 8 -13 4 -17z m154 3 c-13 -13 -26 -3 -16
12 3 6 11 8 17 5 6 -4 6 -10 -1 -17z m121 1 c-12 -12 -35 -1 -27 12 3 5 13 6
21 3 10 -4 12 -9 6 -15z m-1372 2 c0 -5 -2 -10 -4 -10 -3 0 -8 5 -11 10 -3 6
-1 10 4 10 6 0 11 -4 11 -10z m120 6 c0 -3 -4 -8 -10 -11 -5 -3 -10 -1 -10 4
0 6 5 11 10 11 6 0 10 -2 10 -4z m160 0 c0 -11 -19 -15 -25 -6 -3 5 1 10 9 10
9 0 16 -2 16 -4z m230 -6 c0 -5 -4 -10 -10 -10 -5 0 -10 5 -10 10 0 6 5 10 10
10 6 0 10 -4 10 -10z m280 6 c0 -11 -19 -15 -25 -6 -3 5 1 10 9 10 9 0 16 -2
16 -4z m150 -6 c0 -5 -4 -10 -10 -10 -5 0 -10 5 -10 10 0 6 5 10 10 10 6 0 10
-4 10 -10z m80 0 c0 -5 -4 -10 -10 -10 -5 0 -10 5 -10 10 0 6 5 10 10 10 6 0
10 -4 10 -10z m-430 -10 c0 -5 -4 -10 -10 -10 -5 0 -10 5 -10 10 0 6 5 10 10
10 6 0 10 -4 10 -10z m-276 -31 c-3 -5 -10 -7 -15 -3 -5 3 -7 10 -3 15 3 5 10
7 15 3 5 -3 7 -10 3 -15z m156 5 c0 -8 -5 -12 -10 -9 -6 4 -8 11 -5 16 9 14
15 11 15 -7z m80 -5 c0 -5 -4 -9 -10 -9 -5 0 -10 7 -10 16 0 8 5 12 10 9 6 -3
10 -10 10 -16z m80 0 c0 -5 -4 -9 -10 -9 -5 0 -10 7 -10 16 0 8 5 12 10 9 6
-3 10 -10 10 -16z m350 0 c0 -5 -4 -9 -10 -9 -5 0 -10 7 -10 16 0 8 5 12 10 9
6 -3 10 -10 10 -16z m80 6 c0 -8 -4 -15 -10 -15 -5 0 -10 7 -10 15 0 8 5 15
10 15 6 0 10 -7 10 -15z m117 -11 c-9 -9 -28 6 -21 18 4 6 10 6 17 -1 6 -6 8
-13 4 -17z m155 11 c0 -5 -5 -11 -11 -13 -6 -2 -11 4 -11 13 0 9 5 15 11 13 6
-2 11 -8 11 -13z m-1292 -5 c0 -5 -4 -10 -10 -10 -5 0 -10 5 -10 10 0 6 5 10
10 10 6 0 10 -4 10 -10z m200 6 c0 -11 -19 -15 -25 -6 -3 5 1 10 9 10 9 0 16
-2 16 -4z m510 0 c0 -11 -19 -15 -25 -6 -3 5 1 10 9 10 9 0 16 -2 16 -4z m110
-6 c0 -5 -2 -10 -4 -10 -3 0 -8 5 -11 10 -3 6 -1 10 4 10 6 0 11 -4 11 -10z
m391 -13 c-13 -13 -26 -3 -16 12 3 6 11 8 17 5 6 -4 6 -10 -1 -17z m172 1 c-4
-7 -8 -17 -8 -23 0 -5 -10 -11 -23 -11 -16 -1 -20 2 -12 11 5 6 7 15 3 19 -4
4 0 4 9 1 9 -4 19 -2 23 4 3 6 8 11 11 11 3 0 2 -6 -3 -12z m-598 -8 c3 -5 1
-10 -4 -10 -6 0 -11 5 -11 10 0 6 2 10 4 10 3 0 8 -4 11 -10z m-1135 -15 c0
-2 -9 -3 -19 -2 -11 0 -18 5 -15 9 4 6 34 0 34 -7z m390 5 c0 -5 -5 -10 -11
-10 -5 0 -7 5 -4 10 3 6 8 10 11 10 2 0 4 -4 4 -10z m75 0 c3 -5 1 -10 -4 -10
-6 0 -11 5 -11 10 0 6 2 10 4 10 3 0 8 -4 11 -10z m199 -11 c-3 -5 -10 -7 -15
-3 -5 3 -7 10 -3 15 3 5 10 7 15 3 5 -3 7 -10 3 -15z m76 5 c0 -8 -5 -12 -10
-9 -6 4 -8 11 -5 16 9 14 15 11 15 -7z m160 7 c0 -6 -4 -13 -10 -16 -5 -3 -10
1 -10 9 0 9 5 16 10 16 6 0 10 -4 10 -9z m114 -12 c-3 -5 -10 -7 -15 -3 -5 3
-7 10 -3 15 3 5 10 7 15 3 5 -3 7 -10 3 -15z m76 5 c0 -8 -5 -12 -10 -9 -6 4
-8 11 -5 16 9 14 15 11 15 -7z m160 1 c0 -8 -4 -15 -10 -15 -5 0 -10 7 -10 15
0 8 5 15 10 15 6 0 10 -7 10 -15z m80 -6 c0 -5 -4 -9 -10 -9 -5 0 -10 7 -10
16 0 8 5 12 10 9 6 -3 10 -10 10 -16z m74 0 c-3 -5 -10 -7 -15 -3 -5 3 -7 10
-3 15 3 5 10 7 15 3 5 -3 7 -10 3 -15z m121 3 c-8 -9 -45 -10 -45 -1 0 9 32
17 43 11 5 -2 6 -7 2 -10z m97 3 c0 -5 -5 -11 -11 -13 -6 -2 -11 4 -11 13 0 9
5 15 11 13 6 -2 11 -8 11 -13z m-1035 -1 c-3 -3 -12 -4 -19 -1 -8 3 -5 6 6 6
11 1 17 -2 13 -5z m603 -20 c0 -8 -4 -12 -10 -9 -5 3 -10 10 -10 16 0 5 5 9
10 9 6 0 10 -7 10 -16z m-1547 -1 c-7 -2 -19 -2 -25 0 -7 3 -2 5 12 5 14 0 19
-2 13 -5z m2119 -25 c-4 -4 -18 -5 -31 -1 l-23 6 23 13 c18 9 26 9 31 1 4 -7
4 -15 0 -19z m-1472 12 c0 -5 -5 -10 -11 -10 -5 0 -7 5 -4 10 3 6 8 10 11 10
2 0 4 -4 4 -10z m60 0 c0 -5 -4 -10 -10 -10 -5 0 -10 5 -10 10 0 6 5 10 10 10
6 0 10 -4 10 -10z m80 0 c0 -5 -4 -10 -10 -10 -5 0 -10 5 -10 10 0 6 5 10 10
10 6 0 10 -4 10 -10z m115 0 c3 -5 1 -10 -4 -10 -6 0 -11 5 -11 10 0 6 2 10 4
10 3 0 8 -4 11 -10z m235 -6 c0 -8 -5 -12 -10 -9 -6 4 -8 11 -5 16 9 14 15 11
15 -7z m40 6 c0 -5 -4 -10 -10 -10 -5 0 -10 5 -10 10 0 6 5 10 10 10 6 0 10
-4 10 -10z m155 1 c3 -5 1 -12 -5 -16 -5 -3 -10 1 -10 9 0 18 6 21 15 7z m79
-12 c-3 -5 -10 -7 -15 -3 -5 3 -7 10 -3 15 3 5 10 7 15 3 5 -3 7 -10 3 -15z
m76 11 c0 -5 -5 -10 -11 -10 -5 0 -7 5 -4 10 3 6 8 10 11 10 2 0 4 -4 4 -10z
m120 -5 c0 -8 -4 -15 -10 -15 -5 0 -10 7 -10 15 0 8 5 15 10 15 6 0 10 -7 10
-15z m120 7 c0 -13 -12 -22 -22 -16 -10 6 -1 24 13 24 5 0 9 -4 9 -8z m74 -13
c-3 -5 -10 -7 -15 -3 -5 3 -7 10 -3 15 3 5 10 7 15 3 5 -3 7 -10 3 -15z m158
6 c0 -5 -5 -11 -11 -13 -6 -2 -11 4 -11 13 0 9 5 15 11 13 6 -2 11 -8 11 -13z
m83 5 c8 -13 -20 -24 -41 -16 -8 3 -12 10 -9 16 8 13 42 13 50 0z m-1730 -40
c3 -5 2 -10 -4 -10 -5 0 -13 5 -16 10 -3 6 -2 10 4 10 5 0 13 -4 16 -10z m195
0 c0 -5 -5 -10 -11 -10 -5 0 -7 5 -4 10 3 6 8 10 11 10 2 0 4 -4 4 -10z m80 0
c0 -5 -5 -10 -11 -10 -5 0 -7 5 -4 10 3 6 8 10 11 10 2 0 4 -4 4 -10z m80 0
c0 -5 -5 -10 -11 -10 -5 0 -7 5 -4 10 3 6 8 10 11 10 2 0 4 -4 4 -10z m80 0
c0 -5 -4 -10 -10 -10 -5 0 -10 5 -10 10 0 6 5 10 10 10 6 0 10 -4 10 -10z
m115 0 c3 -5 1 -10 -4 -10 -6 0 -11 5 -11 10 0 6 2 10 4 10 3 0 8 -4 11 -10z
m120 0 c3 -5 -1 -10 -10 -10 -9 0 -13 5 -10 10 3 6 8 10 10 10 2 0 7 -4 10
-10z m80 0 c3 -5 -1 -10 -9 -10 -9 0 -16 5 -16 10 0 6 4 10 9 10 6 0 13 -4 16
-10z m195 0 c0 -5 -4 -10 -10 -10 -5 0 -10 5 -10 10 0 6 5 10 10 10 6 0 10 -4
10 -10z m190 0 c0 -5 -5 -10 -11 -10 -5 0 -7 5 -4 10 3 6 8 10 11 10 2 0 4 -4
4 -10z m120 0 c0 -5 -4 -10 -10 -10 -5 0 -10 5 -10 10 0 6 5 10 10 10 6 0 10
-4 10 -10z m120 0 c0 -5 -4 -10 -10 -10 -5 0 -10 5 -10 10 0 6 5 10 10 10 6 0
10 -4 10 -10z m200 2 c0 -13 -12 -22 -22 -16 -10 6 -1 24 13 24 5 0 9 -4 9 -8z
m112 -7 c0 -5 -5 -11 -11 -13 -6 -2 -11 4 -11 13 0 9 5 15 11 13 6 -2 11 -8
11 -13z m81 9 c11 -11 -3 -24 -18 -18 -8 4 -12 10 -9 15 6 11 18 12 27 3z m58
-9 c-1 -15 -24 -12 -29 3 -3 9 2 13 12 10 10 -1 17 -7 17 -13z m-1901 -7 c0
-9 3 -9 12 0 19 19 30 14 17 -9 -8 -15 -8 -19 0 -15 6 4 11 2 11 -3 0 -6 -9
-11 -21 -11 -11 0 -17 5 -14 10 3 6 -1 13 -9 16 -18 7 -22 24 -6 24 6 0 10 -5
10 -12z m170 -8 c0 -5 -4 -10 -10 -10 -5 0 -10 5 -10 10 0 6 5 10 10 10 6 0
10 -4 10 -10z m-210 -13 c11 3 20 0 20 -6 0 -12 -20 -14 -44 -5 -9 3 -13 11
-9 17 5 8 8 8 10 0 2 -6 13 -9 23 -6z m160 -2 c0 -8 -4 -15 -10 -15 -5 0 -10
7 -10 15 0 8 5 15 10 15 6 0 10 -7 10 -15z m155 -5 c-3 -5 -11 -10 -16 -10 -6
0 -7 5 -4 10 3 6 11 10 16 10 6 0 7 -4 4 -10z m115 0 c0 -5 -4 -10 -10 -10 -5
0 -10 5 -10 10 0 6 5 10 10 10 6 0 10 -4 10 -10z m80 0 c0 -5 -4 -10 -10 -10
-5 0 -10 5 -10 10 0 6 5 10 10 10 6 0 10 -4 10 -10z m80 0 c0 -5 -4 -10 -10
-10 -5 0 -10 5 -10 10 0 6 5 10 10 10 6 0 10 -4 10 -10z m120 0 c0 -5 -4 -10
-10 -10 -5 0 -10 5 -10 10 0 6 5 10 10 10 6 0 10 -4 10 -10z m115 0 c3 -5 -1
-10 -9 -10 -9 0 -16 5 -16 10 0 6 4 10 9 10 6 0 13 -4 16 -10z m75 0 c0 -5 -4
-10 -10 -10 -5 0 -10 5 -10 10 0 6 5 10 10 10 6 0 10 -4 10 -10z m80 0 c0 -5
-4 -10 -10 -10 -5 0 -10 5 -10 10 0 6 5 10 10 10 6 0 10 -4 10 -10z m120 0 c0
-5 -4 -10 -10 -10 -5 0 -10 5 -10 10 0 6 5 10 10 10 6 0 10 -4 10 -10z m75 0
c3 -5 1 -10 -4 -10 -6 0 -11 5 -11 10 0 6 2 10 4 10 3 0 8 -4 11 -10z m115 0
c0 -5 -5 -10 -11 -10 -5 0 -7 5 -4 10 3 6 8 10 11 10 2 0 4 -4 4 -10z m120 0
c0 -5 -4 -10 -10 -10 -5 0 -10 5 -10 10 0 6 5 10 10 10 6 0 10 -4 10 -10z
m120 0 c0 -5 -4 -10 -10 -10 -5 0 -10 5 -10 10 0 6 5 10 10 10 6 0 10 -4 10
-10z m40 0 c0 -5 -7 -10 -16 -10 -8 0 -12 5 -9 10 3 6 10 10 16 10 5 0 9 -4 9
-10z m80 0 c0 -5 -7 -10 -16 -10 -8 0 -12 5 -9 10 3 6 10 10 16 10 5 0 9 -4 9
-10z m80 0 c0 -5 -7 -10 -15 -10 -8 0 -15 5 -15 10 0 6 7 10 15 10 8 0 15 -4
15 -10z m51 -3 c-1 -12 -15 -9 -19 4 -3 6 1 10 8 8 6 -3 11 -8 11 -12z m64 3
c3 -5 -1 -10 -9 -10 -9 0 -16 5 -16 10 0 6 4 10 9 10 6 0 13 -4 16 -10z m75 0
c0 -5 -7 -10 -15 -10 -8 0 -15 5 -15 10 0 6 7 10 15 10 8 0 15 -4 15 -10z m87
-31 c34 -24 48 -38 33 -34 -14 4 -27 12 -28 17 -2 5 -9 5 -16 -1 -7 -6 -17 -6
-26 0 -13 8 -13 10 0 19 14 9 13 11 -19 14 -16 1 -28 26 -12 26 5 0 36 -18 68
-41z m-2057 19 c0 -11 -22 -10 -40 2 -11 8 -9 9 13 8 15 -1 27 -6 27 -10z
m130 -28 c0 -5 -9 -10 -21 -10 -11 0 -17 5 -14 10 3 6 13 10 21 10 8 0 14 -4
14 -10z m86 -5 c14 -13 14 -17 -1 -31 -9 -9 -19 -13 -23 -10 -3 4 0 12 8 17
11 8 12 12 3 16 -13 5 -18 23 -7 23 3 0 12 -7 20 -15z m74 5 c0 -5 -7 -10 -16
-10 -8 0 -12 5 -9 10 3 6 10 10 16 10 5 0 9 -4 9 -10z m80 0 c0 -5 -7 -10 -16
-10 -8 0 -12 5 -9 10 3 6 10 10 16 10 5 0 9 -4 9 -10z m55 0 c-3 -5 -11 -10
-16 -10 -6 0 -7 5 -4 10 3 6 11 10 16 10 6 0 7 -4 4 -10z m95 0 c0 -5 -4 -10
-10 -10 -5 0 -10 5 -10 10 0 6 5 10 10 10 6 0 10 -4 10 -10z m200 0 c0 -5 -4
-10 -10 -10 -5 0 -10 5 -10 10 0 6 5 10 10 10 6 0 10 -4 10 -10z m115 0 c3 -5
-1 -10 -9 -10 -9 0 -16 5 -16 10 0 6 4 10 9 10 6 0 13 -4 16 -10z m75 0 c0 -5
-4 -10 -10 -10 -5 0 -10 5 -10 10 0 6 5 10 10 10 6 0 10 -4 10 -10z m80 0 c0
-5 -4 -10 -10 -10 -5 0 -10 5 -10 10 0 6 5 10 10 10 6 0 10 -4 10 -10z m120 0
c0 -5 -4 -10 -10 -10 -5 0 -10 5 -10 10 0 6 5 10 10 10 6 0 10 -4 10 -10z
m190 0 c0 -5 -4 -10 -10 -10 -5 0 -10 5 -10 10 0 6 5 10 10 10 6 0 10 -4 10
-10z m80 0 c0 -5 -4 -10 -10 -10 -5 0 -10 5 -10 10 0 6 5 10 10 10 6 0 10 -4
10 -10z m120 0 c0 -5 -4 -10 -10 -10 -5 0 -10 5 -10 10 0 6 5 10 10 10 6 0 10
-4 10 -10z m160 0 c0 -5 -4 -10 -10 -10 -5 0 -10 5 -10 10 0 6 5 10 10 10 6 0
10 -4 10 -10z m80 0 c0 -5 -7 -10 -15 -10 -8 0 -15 5 -15 10 0 6 7 10 15 10 8
0 15 -4 15 -10z m55 0 c3 -5 -1 -10 -9 -10 -9 0 -16 5 -16 10 0 6 4 10 9 10 6
0 13 -4 16 -10z m55 0 c0 -5 -4 -10 -10 -10 -5 0 -10 5 -10 10 0 6 5 10 10 10
6 0 10 -4 10 -10z m80 0 c0 -5 -4 -10 -10 -10 -5 0 -10 5 -10 10 0 6 5 10 10
10 6 0 10 -4 10 -10z m64 1 c3 -5 -8 -11 -24 -13 -24 -4 -27 -2 -19 9 13 15
35 17 43 4z m-424 -21 c0 -5 -4 -10 -10 -10 -5 0 -10 5 -10 10 0 6 5 10 10 10
6 0 10 -4 10 -10z m448 -17 c-14 -17 -35 -17 -41 0 -3 9 4 13 23 12 22 0 26
-3 18 -12z m59 6 l28 -12 -25 -6 c-14 -4 -26 -15 -28 -26 -3 -17 -1 -17 7 -5
9 13 11 13 11 -2 0 -13 -8 -18 -29 -18 -23 0 -28 4 -27 23 1 13 7 22 18 22 9
0 20 4 24 8 4 4 2 7 -4 7 -7 0 -12 5 -12 10 0 13 2 13 37 -1z m-1987 -14 c0
-8 -4 -15 -10 -15 -5 0 -10 7 -10 15 0 8 5 15 10 15 6 0 10 -7 10 -15z m60 5
c0 -5 -4 -10 -10 -10 -5 0 -10 5 -10 10 0 6 5 10 10 10 6 0 10 -4 10 -10z
m120 -6 c0 -18 -24 -44 -41 -44 -8 0 -5 7 6 20 10 11 15 20 11 20 -4 0 -4 5
-1 10 10 15 25 12 25 -6z m60 6 c0 -5 -7 -10 -16 -10 -8 0 -12 5 -9 10 3 6 10
10 16 10 5 0 9 -4 9 -10z m60 0 c0 -5 -7 -10 -15 -10 -8 0 -15 5 -15 10 0 6 7
10 15 10 8 0 15 -4 15 -10z m55 0 c-3 -5 -10 -10 -16 -10 -5 0 -9 5 -9 10 0 6
7 10 16 10 8 0 12 -4 9 -10z m155 0 c0 -5 -4 -10 -10 -10 -5 0 -10 5 -10 10 0
6 5 10 10 10 6 0 10 -4 10 -10z m80 0 c0 -5 -4 -10 -10 -10 -5 0 -10 5 -10 10
0 6 5 10 10 10 6 0 10 -4 10 -10z m120 0 c0 -5 -7 -10 -16 -10 -8 0 -12 5 -9
10 3 6 10 10 16 10 5 0 9 -4 9 -10z m150 0 c0 -5 -4 -10 -10 -10 -5 0 -10 5
-10 10 0 6 5 10 10 10 6 0 10 -4 10 -10z m120 0 c0 -5 -4 -10 -10 -10 -5 0
-10 5 -10 10 0 6 5 10 10 10 6 0 10 -4 10 -10z m80 0 c0 -5 -4 -10 -10 -10 -5
0 -10 5 -10 10 0 6 5 10 10 10 6 0 10 -4 10 -10z m270 0 c0 -5 -4 -10 -10 -10
-5 0 -10 5 -10 10 0 6 5 10 10 10 6 0 10 -4 10 -10z m120 0 c0 -5 -4 -10 -10
-10 -5 0 -10 5 -10 10 0 6 5 10 10 10 6 0 10 -4 10 -10z m80 0 c0 -5 -4 -10
-10 -10 -5 0 -10 5 -10 10 0 6 5 10 10 10 6 0 10 -4 10 -10z m80 0 c0 -5 -7
-10 -15 -10 -8 0 -15 5 -15 10 0 6 7 10 15 10 8 0 15 -4 15 -10z m120 0 c0 -5
-12 -10 -27 -10 -22 0 -25 2 -13 10 20 13 40 13 40 0z m70 0 c0 -5 -4 -10 -10
-10 -5 0 -10 5 -10 10 0 6 5 10 10 10 6 0 10 -4 10 -10z m60 0 c0 -5 -4 -10
-10 -10 -5 0 -10 5 -10 10 0 6 5 10 10 10 6 0 10 -4 10 -10z m-470 -20 c0 -5
-4 -10 -10 -10 -5 0 -10 5 -10 10 0 6 5 10 10 10 6 0 10 -4 10 -10z m110 -10
c0 -5 -4 -10 -10 -10 -5 0 -10 5 -10 10 0 6 5 10 10 10 6 0 10 -4 10 -10z
m520 -5 c10 -13 9 -15 -9 -15 -12 0 -21 6 -21 15 0 8 4 15 9 15 5 0 14 -7 21
-15z m-2030 -10 c11 -13 9 -15 -19 -13 -17 1 -31 8 -31 15 0 18 35 16 50 -2z
m50 5 c0 -5 -4 -10 -10 -10 -5 0 -10 5 -10 10 0 6 5 10 10 10 6 0 10 -4 10
-10z m200 0 c0 -5 7 -10 15 -10 8 0 15 -4 15 -10 0 -5 -7 -10 -15 -10 -8 0
-15 5 -15 10 0 6 -7 10 -15 10 -8 0 -15 5 -15 10 0 6 7 10 15 10 8 0 15 -4 15
-10z m150 0 c0 -5 -4 -10 -10 -10 -5 0 -10 5 -10 10 0 6 5 10 10 10 6 0 10 -4
10 -10z m80 0 c0 -5 -4 -10 -10 -10 -5 0 -10 5 -10 10 0 6 5 10 10 10 6 0 10
-4 10 -10z m80 0 c0 -5 -4 -10 -10 -10 -5 0 -10 5 -10 10 0 6 5 10 10 10 6 0
10 -4 10 -10z m120 0 c0 -5 -4 -10 -9 -10 -6 0 -13 5 -16 10 -3 6 1 10 9 10 9
0 16 -4 16 -10z m115 0 c3 -5 -1 -10 -9 -10 -9 0 -16 5 -16 10 0 6 4 10 9 10
6 0 13 -4 16 -10z m115 0 c0 -5 -4 -10 -10 -10 -5 0 -10 5 -10 10 0 6 5 10 10
10 6 0 10 -4 10 -10z m120 6 c0 -3 -4 -8 -10 -11 -5 -3 -10 -1 -10 4 0 6 5 11
10 11 6 0 10 -2 10 -4z m550 -6 c0 -5 -4 -10 -10 -10 -5 0 -10 5 -10 10 0 6 5
10 10 10 6 0 10 -4 10 -10z m75 0 c-3 -5 -10 -10 -16 -10 -5 0 -9 5 -9 10 0 6
7 10 16 10 8 0 12 -4 9 -10z m105 0 c0 -5 -7 -10 -15 -10 -8 0 -15 5 -15 10 0
6 7 10 15 10 8 0 15 -4 15 -10z m90 0 c0 -5 -4 -10 -10 -10 -5 0 -10 5 -10 10
0 6 5 10 10 10 6 0 10 -4 10 -10z m60 0 c0 -5 -7 -10 -15 -10 -8 0 -15 5 -15
10 0 6 7 10 15 10 8 0 15 -4 15 -10z m-1800 -20 c0 -5 -4 -10 -10 -10 -5 0
-10 5 -10 10 0 6 5 10 10 10 6 0 10 -4 10 -10z m830 0 c0 -5 -4 -10 -10 -10
-5 0 -10 5 -10 10 0 6 5 10 10 10 6 0 10 -4 10 -10z m380 0 c0 -5 -4 -10 -10
-10 -5 0 -10 5 -10 10 0 6 5 10 10 10 6 0 10 -4 10 -10z m130 0 c0 -5 -4 -10
-10 -10 -5 0 -10 5 -10 10 0 6 5 10 10 10 6 0 10 -4 10 -10z m437 -26 c-9 -9
-28 6 -21 18 4 6 10 6 17 -1 6 -6 8 -13 4 -17z m-1717 6 c0 -5 -4 -10 -9 -10
-6 0 -13 5 -16 10 -3 6 1 10 9 10 9 0 16 -4 16 -10z m60 0 c0 -5 -4 -10 -9
-10 -6 0 -13 5 -16 10 -3 6 1 10 9 10 9 0 16 -4 16 -10z m100 0 c0 -5 -7 -10
-15 -10 -8 0 -15 5 -15 10 0 6 7 10 15 10 8 0 15 -4 15 -10z m110 0 c0 -5 -4
-10 -10 -10 -5 0 -10 5 -10 10 0 6 5 10 10 10 6 0 10 -4 10 -10z m80 0 c0 -5
-4 -10 -10 -10 -5 0 -10 5 -10 10 0 6 5 10 10 10 6 0 10 -4 10 -10z m120 0 c0
-5 -4 -10 -9 -10 -6 0 -13 5 -16 10 -3 6 1 10 9 10 9 0 16 -4 16 -10z m80 6
c0 -3 -4 -8 -10 -11 -5 -3 -10 -1 -10 4 0 6 5 11 10 11 6 0 10 -2 10 -4z m110
-6 c0 -5 -4 -10 -10 -10 -5 0 -10 5 -10 10 0 6 5 10 10 10 6 0 10 -4 10 -10z
m160 0 c0 -5 -4 -10 -10 -10 -5 0 -10 5 -10 10 0 6 5 10 10 10 6 0 10 -4 10
-10z m390 0 c0 -5 -4 -10 -10 -10 -5 0 -10 5 -10 10 0 6 5 10 10 10 6 0 10 -4
10 -10z m40 0 c0 -5 -4 -10 -10 -10 -5 0 -10 5 -10 10 0 6 5 10 10 10 6 0 10
-4 10 -10z m80 6 c0 -3 -4 -8 -10 -11 -5 -3 -10 -1 -10 4 0 6 5 11 10 11 6 0
10 -2 10 -4z m115 -6 c-3 -5 -10 -10 -16 -10 -5 0 -9 5 -9 10 0 6 7 10 16 10
8 0 12 -4 9 -10z m80 0 c-3 -5 -10 -10 -16 -10 -5 0 -9 5 -9 10 0 6 7 10 16
10 8 0 12 -4 9 -10z m80 0 c-3 -5 -10 -10 -16 -10 -5 0 -9 5 -9 10 0 6 7 10
16 10 8 0 12 -4 9 -10z m55 0 c0 -5 -4 -10 -10 -10 -5 0 -10 5 -10 10 0 6 5
10 10 10 6 0 10 -4 10 -10z m145 -4 c-20 -14 -35 -12 -35 5 0 5 12 9 27 9 26
0 26 -1 8 -14z m28 -35 c3 -12 -2 -17 -17 -17 -26 0 -38 16 -25 33 13 15 36 7
42 -16z m-1213 9 c0 -5 -4 -10 -10 -10 -5 0 -10 5 -10 10 0 6 5 10 10 10 6 0
10 -4 10 -10z m670 0 c0 -5 -2 -10 -4 -10 -3 0 -8 5 -11 10 -3 6 -1 10 4 10 6
0 11 -4 11 -10z m-1455 -10 c3 -5 1 -10 -5 -10 -6 0 -8 -5 -4 -12 6 -10 5 -10
-8 -1 -8 7 -17 11 -20 8 -2 -3 -5 2 -5 10 0 17 32 21 42 5z m49 -2 c-5 -7 0
-9 14 -6 18 5 19 3 9 -12 -6 -10 -15 -16 -19 -14 -4 3 -8 3 -8 0 0 -2 -3 -12
-7 -22 -5 -13 -3 -16 10 -11 12 5 17 1 17 -13 0 -33 -45 -9 -45 24 -1 14 3 26
8 26 4 0 5 9 2 20 -5 14 -2 20 10 20 10 0 13 -5 9 -12z m76 2 c0 -5 -4 -10
-10 -10 -5 0 -10 5 -10 10 0 6 5 10 10 10 6 0 10 -4 10 -10z m80 0 c0 -5 -4
-10 -9 -10 -6 0 -13 5 -16 10 -3 6 1 10 9 10 9 0 16 -4 16 -10z m60 0 c0 -5
-7 -10 -15 -10 -8 0 -15 5 -15 10 0 6 7 10 15 10 8 0 15 -4 15 -10z m100 0 c0
-5 -7 -10 -15 -10 -8 0 -15 5 -15 10 0 6 7 10 15 10 8 0 15 -4 15 -10z m230 0
c0 -5 -4 -10 -10 -10 -5 0 -10 5 -10 10 0 6 5 10 10 10 6 0 10 -4 10 -10z m80
0 c0 -5 -4 -10 -9 -10 -6 0 -13 5 -16 10 -3 6 1 10 9 10 9 0 16 -4 16 -10z
m80 6 c0 -11 -19 -15 -25 -6 -3 5 1 10 9 10 9 0 16 -2 16 -4z m110 -6 c0 -5
-2 -10 -4 -10 -3 0 -8 5 -11 10 -3 6 -1 10 4 10 6 0 11 -4 11 -10z m80 0 c0
-5 -4 -10 -10 -10 -5 0 -10 5 -10 10 0 6 5 10 10 10 6 0 10 -4 10 -10z m630 6
c0 -11 -19 -15 -25 -6 -3 5 1 10 9 10 9 0 16 -2 16 -4z m75 -6 c-3 -5 -10 -10
-16 -10 -5 0 -9 5 -9 10 0 6 7 10 16 10 8 0 12 -4 9 -10z m60 0 c-3 -5 -10
-10 -16 -10 -5 0 -9 5 -9 10 0 6 7 10 16 10 8 0 12 -4 9 -10z m95 0 c0 -5 -4
-10 -10 -10 -5 0 -10 5 -10 10 0 6 5 10 10 10 6 0 10 -4 10 -10z m60 0 c0 -5
-4 -10 -10 -10 -5 0 -10 5 -10 10 0 6 5 10 10 10 6 0 10 -4 10 -10z m65 0 c-3
-5 -15 -10 -26 -10 -11 0 -17 5 -14 10 3 6 15 10 26 10 11 0 17 -4 14 -10z
m-1805 -61 c0 -20 -4 -29 -12 -27 -7 3 -12 16 -11 31 1 38 2 39 13 32 6 -3 10
-20 10 -36z m77 15 c-9 -9 -28 6 -21 18 4 6 10 6 17 -1 6 -6 8 -13 4 -17z m77
5 c-3 -5 -10 -7 -15 -3 -5 3 -7 10 -3 15 3 5 10 7 15 3 5 -3 7 -10 3 -15z
m116 1 c0 -5 -4 -10 -10 -10 -5 0 -10 5 -10 10 0 6 5 10 10 10 6 0 10 -4 10
-10z m80 0 c0 -5 -4 -10 -10 -10 -5 0 -10 5 -10 10 0 6 5 10 10 10 6 0 10 -4
10 -10z m80 0 c0 -5 -4 -10 -10 -10 -5 0 -10 5 -10 10 0 6 5 10 10 10 6 0 10
-4 10 -10z m80 0 c0 -5 -4 -10 -9 -10 -6 0 -13 5 -16 10 -3 6 1 10 9 10 9 0
16 -4 16 -10z m80 6 c0 -11 -19 -15 -25 -6 -3 5 1 10 9 10 9 0 16 -2 16 -4z
m110 -6 c0 -5 -2 -10 -4 -10 -3 0 -8 5 -11 10 -3 6 -1 10 4 10 6 0 11 -4 11
-10z m80 0 c0 -5 -2 -10 -4 -10 -3 0 -8 5 -11 10 -3 6 -1 10 4 10 6 0 11 -4
11 -10z m550 6 c0 -3 -4 -8 -10 -11 -5 -3 -10 -1 -10 4 0 6 5 11 10 11 6 0 10
-2 10 -4z m80 0 c0 -3 -4 -8 -10 -11 -5 -3 -10 -1 -10 4 0 6 5 11 10 11 6 0
10 -2 10 -4z m80 0 c0 -11 -19 -15 -25 -6 -3 5 1 10 9 10 9 0 16 -2 16 -4z
m55 -6 c-3 -5 -10 -10 -16 -10 -5 0 -9 5 -9 10 0 6 7 10 16 10 8 0 12 -4 9
-10z m60 0 c-3 -5 -10 -10 -16 -10 -5 0 -9 5 -9 10 0 6 7 10 16 10 8 0 12 -4
9 -10z m60 0 c-3 -5 -10 -10 -16 -10 -5 0 -9 5 -9 10 0 6 7 10 16 10 8 0 12
-4 9 -10z m60 0 c-3 -5 -10 -10 -16 -10 -5 0 -9 5 -9 10 0 6 7 10 16 10 8 0
12 -4 9 -10z m77 -2 c-9 -9 -15 -9 -24 0 -9 9 -7 12 12 12 19 0 21 -3 12 -12z
m-1745 -44 c-9 -9 -28 6 -21 18 4 6 10 6 17 -1 6 -6 8 -13 4 -17z m60 0 c-9
-9 -28 6 -21 18 4 6 10 6 17 -1 6 -6 8 -13 4 -17z m77 5 c-3 -5 -10 -7 -15 -3
-5 3 -7 10 -3 15 3 5 10 7 15 3 5 -3 7 -10 3 -15z m112 -6 c-10 -10 -19 5 -10
18 6 11 8 11 12 0 2 -7 1 -15 -2 -18z m84 12 c0 -8 -4 -15 -10 -15 -5 0 -10 7
-10 15 0 8 5 15 10 15 6 0 10 -7 10 -15z m1452 -3 c-7 -2 -10 -8 -6 -13 3 -5
1 -9 -4 -9 -12 0 -23 26 -15 33 3 3 12 3 21 -1 10 -4 12 -7 4 -10z m-1372 -2
c0 -5 -4 -10 -10 -10 -5 0 -10 5 -10 10 0 6 5 10 10 10 6 0 10 -4 10 -10z m80
0 c0 -5 -4 -10 -9 -10 -6 0 -13 5 -16 10 -3 6 1 10 9 10 9 0 16 -4 16 -10z
m110 -1 c0 -6 -4 -8 -9 -4 -5 3 -12 1 -16 -5 -4 -6 -11 -8 -16 -4 -5 3 -7 9
-5 13 7 11 46 11 46 0z m710 7 c0 -3 -4 -8 -10 -11 -5 -3 -10 -1 -10 4 0 6 5
11 10 11 6 0 10 -2 10 -4z m80 0 c0 -11 -19 -15 -25 -6 -3 5 1 10 9 10 9 0 16
-2 16 -4z m117 -2 c-3 -3 -12 -4 -19 -1 -8 3 -5 6 6 6 11 1 17 -2 13 -5z m58
-4 c-3 -5 -10 -10 -16 -10 -5 0 -9 5 -9 10 0 6 7 10 16 10 8 0 12 -4 9 -10z
m60 0 c-3 -5 -10 -10 -16 -10 -5 0 -9 5 -9 10 0 6 7 10 16 10 8 0 12 -4 9 -10z
m75 6 c0 -11 -19 -15 -25 -6 -3 5 1 10 9 10 9 0 16 -2 16 -4z m-1794 -31 c-3
-23 -14 -29 -30 -16 -8 7 -21 9 -27 5 -8 -5 -9 -3 -5 5 5 7 14 10 20 8 7 -3
19 -1 27 4 18 11 18 11 15 -6z m59 -4 c7 -12 -12 -24 -25 -16 -11 7 -4 25 10
25 5 0 11 -4 15 -9z m55 -6 c0 -8 -4 -15 -9 -15 -13 0 -22 16 -14 24 11 11 23
6 23 -9z m74 -6 c-3 -5 -10 -7 -15 -3 -5 3 -7 10 -3 15 3 5 10 7 15 3 5 -3 7
-10 3 -15z m77 -2 c-13 -13 -26 -3 -16 12 3 6 11 8 17 5 6 -4 6 -10 -1 -17z
m119 8 c0 -8 -4 -15 -10 -15 -5 0 -10 7 -10 15 0 8 5 15 10 15 6 0 10 -7 10
-15z m80 0 c0 -8 -4 -15 -10 -15 -5 0 -10 7 -10 15 0 8 5 15 10 15 6 0 10 -7
10 -15z m77 -11 c-9 -9 -28 6 -21 18 4 6 10 6 17 -1 6 -6 8 -13 4 -17z m77 5
c-3 -5 -10 -7 -15 -3 -5 3 -7 10 -3 15 3 5 10 7 15 3 5 -3 7 -10 3 -15z m1135
0 c-16 -10 -23 -4 -14 10 3 6 11 8 17 5 6 -4 5 -9 -3 -15z m90 8 c10 -13 -2
-15 -39 -8 -4 1 21 20 26 21 1 0 7 -6 13 -13z m-1109 -13 c0 -8 -5 -12 -10 -9
-6 4 -8 11 -5 16 9 14 15 11 15 -7z m710 12 c0 -3 -4 -8 -10 -11 -5 -3 -10 -1
-10 4 0 6 5 11 10 11 6 0 10 -2 10 -4z m77 -2 c-3 -3 -12 -4 -19 -1 -8 3 -5 6
6 6 11 1 17 -2 13 -5z m100 0 c-3 -3 -12 -4 -19 -1 -8 3 -5 6 6 6 11 1 17 -2
13 -5z m60 0 c-3 -3 -12 -4 -19 -1 -8 3 -5 6 6 6 11 1 17 -2 13 -5z m-1023
-25 c-3 -5 -10 -7 -15 -3 -5 3 -7 10 -3 15 3 5 10 7 15 3 5 -3 7 -10 3 -15z
m-620 -31 c-9 -15 -33 12 -27 29 5 14 8 14 19 -2 7 -10 11 -22 8 -27z m116 27
c0 -8 -4 -15 -9 -15 -13 0 -22 16 -14 24 11 11 23 6 23 -9z m-57 -14 c3 -15 0
-17 -17 -13 -21 5 -21 5 -3 -16 18 -20 18 -20 -7 -18 -21 3 -24 0 -16 -14 7
-13 5 -22 -7 -31 -14 -12 -16 -12 -8 0 6 11 4 13 -8 8 -11 -4 -14 -2 -10 9 3
7 9 14 14 14 5 0 8 3 7 8 -4 13 27 72 38 72 7 0 14 -8 17 -19z m131 -2 c-3 -5
-10 -7 -15 -3 -5 3 -7 10 -3 15 3 5 10 7 15 3 5 -3 7 -10 3 -15z m117 8 c-1
-12 -15 -9 -19 4 -3 6 1 10 8 8 6 -3 11 -8 11 -12z m79 -2 c0 -8 -4 -15 -10
-15 -5 0 -10 7 -10 15 0 8 5 15 10 15 6 0 10 -7 10 -15z m154 -6 c-3 -5 -10
-7 -15 -3 -5 3 -7 10 -3 15 3 5 10 7 15 3 5 -3 7 -10 3 -15z m116 11 c0 -5 -5
-10 -11 -10 -5 0 -7 5 -4 10 3 6 8 10 11 10 2 0 4 -4 4 -10z m865 0 c3 -5 -1
-10 -10 -10 -9 0 -13 5 -10 10 3 6 8 10 10 10 2 0 7 -4 10 -10z m80 0 c3 -5
-1 -10 -10 -10 -9 0 -13 5 -10 10 3 6 8 10 10 10 2 0 7 -4 10 -10z m120 0 c3
-6 -4 -10 -17 -10 -18 0 -20 2 -8 10 19 12 18 12 25 0z m74 -11 c-7 -4 -17 -5
-22 -2 -5 3 -3 9 4 14 7 4 17 5 22 2 5 -3 3 -9 -4 -14z m-1349 1 c0 -5 -2 -10
-4 -10 -3 0 -8 5 -11 10 -3 6 -1 10 4 10 6 0 11 -4 11 -10z m134 -31 c-3 -5
-10 -7 -15 -3 -5 3 -7 10 -3 15 3 5 10 7 15 3 5 -3 7 -10 3 -15z m1256 0 c0
-14 -27 -10 -33 5 -4 10 0 12 14 9 10 -3 19 -9 19 -14z m-1720 3 c0 -13 -12
-22 -22 -16 -10 6 -1 24 13 24 5 0 9 -4 9 -8z m151 -5 c-1 -12 -15 -9 -19 4
-3 6 1 10 8 8 6 -3 11 -8 11 -12z m89 3 c0 -5 -4 -10 -9 -10 -6 0 -13 5 -16
10 -3 6 1 10 9 10 9 0 16 -4 16 -10z m110 -5 c0 -8 -4 -15 -9 -15 -13 0 -22
16 -14 24 11 11 23 6 23 -9z m154 -6 c-3 -5 -10 -7 -15 -3 -5 3 -7 10 -3 15 3
5 10 7 15 3 5 -3 7 -10 3 -15z m666 11 c0 -5 -5 -10 -11 -10 -5 0 -7 5 -4 10
3 6 8 10 11 10 2 0 4 -4 4 -10z m75 0 c3 -5 1 -10 -4 -10 -6 0 -11 5 -11 10 0
6 2 10 4 10 3 0 8 -4 11 -10z m80 0 c3 -5 -1 -10 -10 -10 -9 0 -13 5 -10 10 3
6 8 10 10 10 2 0 7 -4 10 -10z m60 0 c3 -5 -1 -10 -10 -10 -9 0 -13 5 -10 10
3 6 8 10 10 10 2 0 7 -4 10 -10z m60 0 c3 -5 -1 -10 -10 -10 -9 0 -13 5 -10
10 3 6 8 10 10 10 2 0 7 -4 10 -10z m80 0 c3 -5 -1 -10 -10 -10 -9 0 -13 5
-10 10 3 6 8 10 10 10 2 0 7 -4 10 -10z m56 -3 c-1 -12 -15 -9 -19 4 -3 6 1
10 8 8 6 -3 11 -8 11 -12z m64 3 c3 -5 1 -10 -4 -10 -6 0 -11 -7 -11 -16 0
-13 3 -14 14 -5 10 9 15 8 19 -3 3 -8 -2 -16 -13 -19 -14 -4 -21 3 -29 23 -9
27 -6 40 10 40 4 0 11 -4 14 -10z m185 -4 c0 -2 -7 -7 -16 -10 -8 -3 -12 -2
-9 4 6 10 25 14 25 6z m-223 -36 c9 -13 7 -15 -17 -15 -28 -1 -28 0 -13 17 9
10 17 17 17 16 1 -2 7 -10 13 -18z m117 2 c9 -5 -13 -22 -29 -22 -6 0 -11 8
-11 19 0 18 12 19 40 3z m-1764 1 c0 -10 -20 -40 -20 -31 0 3 -3 13 -6 22 -4
11 -1 16 10 16 9 0 16 -3 16 -7z m80 -2 c0 -5 -6 -13 -13 -19 -10 -8 -13 -6
-14 9 -1 10 5 19 13 19 8 0 14 -4 14 -9z m58 -2 c-2 -6 -8 -10 -13 -10 -5 0
-11 4 -13 10 -2 6 4 11 13 11 9 0 15 -5 13 -11z m132 1 c0 -5 -4 -10 -10 -10
-5 0 -10 5 -10 10 0 6 5 10 10 10 6 0 10 -4 10 -10z m80 -5 c0 -8 -4 -15 -10
-15 -5 0 -10 7 -10 15 0 8 5 15 10 15 6 0 10 -7 10 -15z m120 5 c0 -5 -7 -10
-15 -10 -8 0 -15 5 -15 10 0 6 7 10 15 10 8 0 15 -4 15 -10z m580 0 c0 -5 -5
-10 -11 -10 -5 0 -7 5 -4 10 3 6 8 10 11 10 2 0 4 -4 4 -10z m80 0 c0 -5 -5
-10 -11 -10 -5 0 -7 5 -4 10 3 6 8 10 11 10 2 0 4 -4 4 -10z m160 0 c0 -5 -5
-10 -11 -10 -5 0 -7 5 -4 10 3 6 8 10 11 10 2 0 4 -4 4 -10z m55 0 c3 -5 1
-10 -4 -10 -6 0 -11 5 -11 10 0 6 2 10 4 10 3 0 8 -4 11 -10z m65 0 c0 -5 -7
-10 -16 -10 -8 0 -12 5 -9 10 3 6 10 10 16 10 5 0 9 -4 9 -10z m70 0 c0 -5 -4
-10 -10 -10 -5 0 -10 5 -10 10 0 6 5 10 10 10 6 0 10 -4 10 -10z m90 0 c0 -5
-7 -10 -15 -10 -8 0 -15 5 -15 10 0 6 7 10 15 10 8 0 15 -4 15 -10z m-1375
-10 c3 -5 -1 -10 -9 -10 -9 0 -16 5 -16 10 0 6 4 10 9 10 6 0 13 -4 16 -10z
m-98 -7 c-4 -3 -2 -12 3 -18 13 -15 -18 -31 -32 -17 -9 9 15 42 29 42 4 0 3
-3 0 -7z m1600 -33 c3 -35 -32 -63 -43 -35 -5 12 -9 13 -20 4 -12 -10 -13 -9
-8 5 7 19 18 20 45 6 15 -9 19 -7 19 5 0 9 -6 15 -12 14 -34 -4 -40 4 -13 16
17 8 30 14 30 15 0 0 1 -13 2 -30z m-1539 9 c-2 -6 -8 -10 -13 -10 -5 0 -11 4
-13 10 -2 6 4 11 13 11 9 0 15 -5 13 -11z m82 1 c0 -5 -7 -10 -15 -10 -8 0
-15 5 -15 10 0 6 7 10 15 10 8 0 15 -4 15 -10z m70 1 c0 -6 -4 -13 -10 -16 -5
-3 -10 1 -10 9 0 9 5 16 10 16 6 0 10 -4 10 -9z m80 -1 c0 -5 -4 -10 -10 -10
-5 0 -10 5 -10 10 0 6 5 10 10 10 6 0 10 -4 10 -10z m120 0 c0 -5 -7 -10 -15
-10 -8 0 -15 5 -15 10 0 6 7 10 15 10 8 0 15 -4 15 -10z m580 0 c0 -5 -5 -10
-11 -10 -5 0 -7 5 -4 10 3 6 8 10 11 10 2 0 4 -4 4 -10z m80 0 c0 -5 -5 -10
-11 -10 -5 0 -7 5 -4 10 3 6 8 10 11 10 2 0 4 -4 4 -10z m80 0 c0 -5 -4 -10
-10 -10 -5 0 -10 5 -10 10 0 6 5 10 10 10 6 0 10 -4 10 -10z m80 0 c0 -5 -4
-10 -10 -10 -5 0 -10 5 -10 10 0 6 5 10 10 10 6 0 10 -4 10 -10z m80 0 c0 -5
-7 -10 -16 -10 -8 0 -12 5 -9 10 3 6 10 10 16 10 5 0 9 -4 9 -10z m80 0 c0 -5
-7 -10 -15 -10 -8 0 -15 5 -15 10 0 6 7 10 15 10 8 0 15 -4 15 -10z m80 0 c0
-5 -9 -10 -21 -10 -11 0 -17 5 -14 10 3 6 13 10 21 10 8 0 14 -4 14 -10z m50
0 c0 -5 -4 -10 -10 -10 -5 0 -10 5 -10 10 0 6 5 10 10 10 6 0 10 -4 10 -10z
m129 -3 c8 -11 6 -13 -11 -12 -12 1 -24 7 -26 13 -5 16 23 15 37 -1z m-1656
-29 c-2 -5 1 -8 6 -8 6 0 11 4 11 10 0 5 7 7 15 3 19 -7 13 -29 -5 -25 -7 2
-17 -3 -21 -10 -6 -9 -9 -8 -9 6 0 11 -3 16 -7 12 -5 -4 -8 -16 -8 -27 0 -25
-20 -25 -21 0 -1 11 -4 26 -7 35 -5 12 0 15 23 13 15 -1 26 -5 23 -9z m107 -9
c0 -5 -7 -9 -15 -9 -15 0 -20 12 -9 23 8 8 24 -1 24 -14z m147 -5 c-9 -9 -28
6 -21 18 4 6 10 6 17 -1 6 -6 8 -13 4 -17z m123 5 c0 -5 -7 -9 -15 -9 -15 0
-20 12 -9 23 8 8 24 -1 24 -14z m860 11 c0 -5 -7 -10 -16 -10 -8 0 -12 5 -9
10 3 6 10 10 16 10 5 0 9 -4 9 -10z m191 -13 c-13 -13 -26 -3 -16 12 3 6 11 8
17 5 6 -4 6 -10 -1 -17z m-1251 0 c0 -8 -6 -14 -14 -14 -8 0 -12 6 -9 14 3 7
9 13 14 13 5 0 9 -6 9 -13z m860 3 c0 -5 -5 -10 -11 -10 -5 0 -7 5 -4 10 3 6
8 10 11 10 2 0 4 -4 4 -10z m60 0 c0 -5 -5 -10 -11 -10 -5 0 -7 5 -4 10 3 6 8
10 11 10 2 0 4 -4 4 -10z m65 -4 c8 -7 11 -16 8 -19 -5 -6 -33 17 -33 27 0 10
11 7 25 -8z m110 4 c-3 -5 -11 -10 -16 -10 -6 0 -7 5 -4 10 3 6 11 10 16 10 6
0 7 -4 4 -10z m80 0 c-3 -5 -11 -10 -16 -10 -6 0 -7 5 -4 10 3 6 11 10 16 10
6 0 7 -4 4 -10z m165 0 c0 -5 -7 -10 -15 -10 -8 0 -15 5 -15 10 0 6 7 10 15
10 8 0 15 -4 15 -10z m-1082 -22 c7 -7 12 -17 12 -22 0 -6 -4 -5 -9 3 -8 12
-12 12 -24 2 -10 -8 -17 -9 -22 -1 -3 5 1 10 10 10 9 0 13 5 10 10 -9 14 8 13
23 -2z m-373 -28 c-5 -8 -11 -8 -21 1 -12 10 -12 14 -2 20 16 10 33 -5 23 -21z
m1207 8 c-6 -6 -15 -8 -19 -4 -4 4 -1 11 7 16 19 12 27 3 12 -12z m-1122 2 c0
-5 -7 -10 -15 -10 -8 0 -15 5 -15 10 0 6 7 10 15 10 8 0 15 -4 15 -10z m70 0
c0 -5 -4 -10 -10 -10 -5 0 -10 5 -10 10 0 6 5 10 10 10 6 0 10 -4 10 -10z
m120 0 c0 -5 -7 -10 -15 -10 -8 0 -15 5 -15 10 0 6 7 10 15 10 8 0 15 -4 15
-10z m660 0 c0 -5 -5 -10 -11 -10 -5 0 -7 5 -4 10 3 6 8 10 11 10 2 0 4 -4 4
-10z m195 0 c-3 -5 -14 -10 -23 -10 -15 0 -15 2 -2 10 20 13 33 13 25 0z m-48
-16 c-3 -3 -12 -4 -19 -1 -8 3 -5 6 6 6 11 1 17 -2 13 -5z m-113 -29 c-4 -8
-13 -15 -22 -15 -13 0 -12 3 4 15 24 18 25 18 18 0z"/>
<path d="M1781 3902 c174 -118 310 -219 416 -308 43 -36 98 -82 123 -102 128
-105 370 -361 520 -549 23 -28 150 -233 152 -245 2 -7 6 -15 9 -18 22 -18 152
-327 145 -346 -3 -7 0 -14 6 -16 7 -3 9 -12 5 -22 -4 -9 -11 -15 -17 -11 -10
6 -7 -81 5 -125 24 -94 7 -139 -53 -141 -23 -1 -29 -3 -14 -6 12 -2 22 -9 22
-15 0 -6 -9 -8 -21 -5 -16 4 -18 3 -9 -8 8 -9 7 -14 -4 -18 -9 -4 -18 -2 -21
3 -4 6 -12 10 -18 9 -9 0 -9 -2 1 -6 17 -7 15 -23 -3 -23 -19 0 -56 31 -49 42
3 4 0 8 -5 8 -6 0 -11 7 -11 16 0 8 -4 13 -9 10 -5 -3 -11 0 -14 8 -4 9 3 16
16 20 21 5 40 -11 31 -26 -3 -4 0 -8 5 -8 6 0 11 5 11 10 0 15 -46 60 -61 60
-7 0 -4 -6 7 -14 19 -15 19 -15 -1 -11 -11 2 -23 4 -27 4 -13 2 4 31 18 31 8
0 14 5 14 11 0 5 5 7 10 4 6 -3 10 1 10 10 0 11 -7 14 -27 10 -21 -4 -23 -3
-9 3 14 6 16 11 8 16 -7 4 -10 12 -7 17 3 5 2 25 -4 44 -6 24 -6 35 1 35 6 0
4 8 -5 18 -10 10 -15 21 -12 24 3 3 -6 6 -20 6 -17 0 -25 -6 -25 -19 0 -10 -5
-21 -10 -24 -6 -4 -4 -12 5 -22 14 -14 14 -18 -1 -40 -9 -14 -11 -22 -5 -19 7
5 11 -2 11 -19 0 -15 -4 -24 -10 -20 -5 3 -10 2 -10 -4 0 -5 5 -13 10 -16 6
-4 7 -11 4 -17 -4 -6 0 -14 7 -19 11 -7 10 -9 -4 -9 -10 0 -16 -4 -13 -8 2 -4
1 -14 -4 -22 -5 -8 -5 -21 1 -31 6 -12 5 -19 -4 -22 -8 -3 -6 -10 8 -21 20
-17 20 -17 -1 -11 -17 4 -23 0 -26 -20 -3 -14 -1 -25 4 -25 5 0 8 -6 5 -12 -2
-7 -9 -12 -15 -11 -6 2 -14 -6 -17 -17 -5 -17 -10 -18 -28 -9 -22 12 -22 12
-4 -9 18 -20 15 -48 -4 -37 -5 4 -9 -5 -9 -18 0 -14 -6 -30 -14 -36 -12 -10
-15 -7 -19 16 -4 28 -4 28 -6 -4 -1 -25 -7 -33 -33 -43 -18 -7 -39 -12 -45
-11 -7 1 -13 -2 -13 -7 0 -5 -11 -12 -25 -14 -17 -4 -29 1 -39 16 -14 20 -14
20 -13 1 1 -11 7 -23 12 -27 6 -4 1 -8 -10 -9 -11 -1 -27 -2 -35 -3 -8 -1 -21
3 -29 9 -12 8 -13 6 -8 -7 5 -15 0 -18 -33 -18 -22 0 -40 4 -40 9 0 8 -8 8
-39 2 -2 -1 3 -9 10 -18 13 -15 12 -16 -8 -11 -13 4 -23 3 -23 -1 0 -3 -18 -7
-39 -8 -33 -1 -39 1 -34 14 5 13 2 15 -11 10 -10 -4 -19 -7 -22 -7 -2 0 -1 -7
3 -16 5 -14 3 -15 -16 -4 -13 6 -20 17 -18 24 3 8 -5 12 -24 11 -27 -1 -56
-15 -31 -15 25 0 63 -21 56 -31 -4 -8 -9 -7 -14 2 -7 10 -12 10 -26 -2 -13
-10 -18 -11 -21 -2 -2 7 -11 9 -19 6 -16 -6 -18 1 -4 26 9 18 3 19 -105 19
-91 0 -115 -3 -115 -14 0 -24 -1 -29 -12 -41 -12 -15 -42 -17 -33 -3 4 6 11 8
16 5 5 -4 5 5 -1 20 -6 15 -6 24 -1 20 5 -3 12 -1 16 5 6 10 -13 14 -50 10
-16 -2 -17 0 -6 14 8 9 11 19 8 22 -3 3 -13 -6 -22 -20 -17 -25 -45 -36 -45
-16 0 6 -10 6 -27 -1 -31 -12 -84 8 -61 22 10 7 10 11 -1 21 -8 7 -11 8 -8 2
7 -12 -80 -13 -100 -1 -6 4 -14 3 -18 -2 -9 -15 -42 -9 -41 8 1 8 -7 17 -18
19 -11 3 -16 0 -11 -7 3 -6 11 -8 17 -5 7 4 8 2 4 -5 -4 -6 -12 -9 -17 -6 -5
4 -9 0 -9 -7 -1 -9 -5 -7 -14 5 -14 18 -42 25 -31 7 3 -5 -2 -11 -12 -12 -10
0 -22 -2 -28 -3 -5 -2 -18 -3 -27 -4 -10 0 -18 -8 -18 -16 0 -8 -7 -15 -16
-15 -8 0 -13 3 -11 8 2 4 -8 18 -21 31 -16 15 -23 18 -19 7 4 -9 1 -16 -6 -16
-8 0 -6 -4 3 -10 12 -8 12 -10 -5 -10 -17 0 -18 -2 -5 -11 13 -9 13 -10 0 -6
-8 2 -14 10 -12 16 1 6 -5 11 -14 11 -8 0 -13 4 -9 9 3 6 -3 8 -15 6 -11 -2
-22 0 -25 5 -9 14 -35 0 -35 -19 0 -14 -2 -14 -10 -1 -9 14 -12 7 -9 -16 1
-10 -24 -23 -32 -18 -4 2 -6 17 -3 32 3 19 2 23 -5 12 -5 -8 -7 -18 -5 -22 3
-4 -2 -5 -11 -1 -13 5 -14 7 -3 14 20 13 -11 30 -33 19 -9 -5 -20 -6 -24 -2
-5 4 -5 1 -1 -5 4 -8 2 -14 -6 -14 -18 -2 -20 -1 -43 6 -11 3 -4 -3 15 -13 37
-21 40 -29 18 -44 -10 -8 -10 -9 2 -5 8 2 14 10 12 16 -1 6 2 11 8 11 14 0 12
-16 -4 -29 -9 -8 -21 -8 -45 0 -28 10 -35 29 -10 29 6 0 7 -4 4 -10 -3 -5 -2
-10 4 -10 22 0 19 18 -5 29 -14 6 -23 7 -19 2 3 -5 1 -12 -5 -16 -5 -3 -10 -2
-10 3 0 6 -8 13 -17 16 -14 6 -12 2 5 -17 24 -25 20 -37 -10 -37 -11 0 -16 -5
-13 -10 4 -6 11 -7 17 -4 6 4 8 3 5 -3 -4 -6 -18 -9 -31 -8 -18 2 -23 -1 -19
-12 5 -12 7 -12 14 -1 7 11 9 11 9 0 0 -9 7 -11 20 -7 14 4 20 2 20 -9 0 -12
-5 -14 -24 -6 -28 10 -40 2 -25 -17 9 -9 8 -13 0 -13 -6 0 -11 4 -11 9 0 5 -9
11 -20 14 -21 5 -29 -8 -8 -15 7 -3 9 -12 4 -23 -5 -15 -9 -16 -15 -6 -7 10
-13 11 -27 2 -16 -9 -16 -10 -3 -11 25 0 31 -26 7 -27 -12 -1 -22 6 -25 18 -3
10 -9 19 -14 19 -11 0 -7 -22 4 -31 8 -6 -49 -23 -66 -20 -5 1 -6 -3 -3 -8 3
-5 -2 -15 -11 -22 -14 -12 -16 -12 -9 1 6 11 4 10 -9 -2 -18 -16 -18 -19 -2
-36 21 -23 21 -28 3 -35 -10 -4 -13 -1 -9 9 8 21 -10 17 -27 -5 -7 -11 -18
-18 -22 -15 -5 3 1 15 14 25 18 16 19 22 9 28 -8 5 -11 13 -7 19 3 6 -4 9 -18
8 -23 -1 -27 -10 -13 -33 4 -6 0 -18 -8 -26 -8 -9 -15 -21 -15 -28 0 -8 -4 -8
-15 1 -9 7 -12 16 -8 19 5 3 9 19 10 34 1 25 -1 26 -12 11 -8 -11 -17 -14 -26
-9 -11 7 -11 5 1 -10 10 -13 11 -19 4 -22 -7 -2 -10 -13 -7 -24 4 -13 1 -19
-8 -17 -20 4 -29 20 -23 40 2 9 -1 20 -7 24 -8 4 -9 3 -5 -4 9 -15 -6 -16 -22
-2 -9 7 -9 7 -2 -2 13 -16 13 -31 0 -23 -13 8 -13 -1 0 -26 13 -23 3 -25 -21
-3 -10 9 -15 23 -12 32 5 12 2 14 -18 7 -13 -4 -33 -7 -44 -6 -51 2 -92 8
-103 15 -7 4 -12 2 -12 -4 0 -6 -5 -8 -10 -5 -6 4 -7 11 -4 17 4 7 2 8 -4 4
-7 -4 -12 -2 -12 4 0 6 -5 8 -10 5 -7 -4 -3 -14 10 -25 21 -18 20 -40 -1 -40
-6 0 -7 5 -3 12 4 7 3 8 -5 4 -6 -4 -18 0 -27 9 -27 27 -28 8 -2 -23 17 -21
29 -27 39 -21 8 4 21 3 29 -2 13 -9 13 -10 0 -6 -8 2 -23 0 -32 -4 -12 -7 -20
-4 -26 7 -5 9 -12 15 -15 15 -4 -1 -7 2 -6 5 0 4 -5 10 -11 14 -15 9 -2 80 15
80 14 0 25 21 25 47 0 22 -24 10 -30 -16 -7 -30 -25 -22 -25 12 0 16 -5 27
-13 27 -7 0 -10 -5 -6 -12 4 -7 3 -8 -4 -4 -28 17 -31 -7 -4 -32 15 -15 27
-33 26 -39 -1 -7 -2 -23 -4 -35 -1 -19 -4 -17 -11 10 -6 19 -25 49 -43 67 -32
31 -34 32 -47 14 -15 -22 -31 -25 -28 -6 3 24 -1 35 -16 41 -13 4 -14 -77 -14
-652 0 -498 3 -658 12 -664 9 -6 9 -10 1 -15 -7 -5 -11 -37 -10 -83 1 -70 2
-75 24 -78 13 -2 29 2 37 8 9 7 15 8 20 0 8 -13 52 -13 60 0 5 8 11 7 21 -1
11 -9 17 -9 28 0 11 9 19 9 36 -1 17 -11 22 -11 29 1 5 8 11 9 15 3 4 -6 641
-10 1866 -11 l1860 -2 0 2001 0 2000 -1182 0 -1182 0 145 -98z m1123 -1631 c3
-5 -3 -11 -13 -14 -14 -3 -18 -1 -14 9 6 16 19 18 27 5z m6 -41 c0 -5 -7 -10
-15 -10 -8 0 -15 5 -15 10 0 6 7 10 15 10 8 0 15 -4 15 -10z m0 -34 c0 -11
-19 -15 -25 -6 -3 5 1 10 9 10 9 0 16 -2 16 -4z m-3 -42 c-3 -3 -12 -4 -19 -1
-8 3 -5 6 6 6 11 1 17 -2 13 -5z m0 -40 c-3 -3 -12 -4 -19 -1 -8 3 -5 6 6 6
11 1 17 -2 13 -5z m-2 -74 c3 -5 -1 -10 -9 -10 -9 0 -16 5 -16 10 0 6 4 10 9
10 6 0 13 -4 16 -10z m40 -40 c3 -5 -3 -10 -14 -10 -12 0 -21 5 -21 10 0 6 6
10 14 10 8 0 18 -4 21 -10z m-40 -21 c4 -5 12 -8 18 -6 7 2 18 -3 25 -12 10
-14 11 -13 5 4 -7 19 -6 19 17 4 32 -21 37 -39 11 -39 -12 0 -21 -4 -21 -10 0
-5 -9 -10 -20 -10 -11 0 -20 5 -20 10 0 6 5 10 12 10 6 0 3 9 -7 20 -10 11
-24 20 -32 20 -7 0 -13 5 -13 10 0 13 17 13 25 -1z m0 -57 c2 -28 -30 -39 -51
-17 -9 9 -14 19 -11 22 3 3 13 -2 22 -11 22 -21 23 -21 17 10 -3 19 -1 25 8
22 8 -2 14 -14 15 -26z m-1685 -248 c0 -3 -7 -1 -15 6 -8 7 -15 17 -15 22 0 5
7 3 15 -6 8 -8 15 -18 15 -22z m-155 5 c-4 -5 -1 -9 6 -9 7 0 10 -2 8 -5 -3
-2 -15 -2 -27 2 -18 4 -20 8 -11 19 12 15 33 9 24 -7z m355 -1 c0 -13 -23 -5
-28 10 -2 7 2 10 12 6 9 -3 16 -11 16 -16z m85 12 c-3 -5 -14 -10 -23 -9 -14
0 -13 2 3 9 27 11 27 11 20 0z m159 -4 c-3 -8 -13 -12 -25 -9 -16 5 -18 8 -7
14 20 13 38 11 32 -5z m-74 0 c0 -2 -9 -6 -20 -9 -11 -3 -20 -1 -20 4 0 5 9 9
20 9 11 0 20 -2 20 -4z m-486 -35 c3 -5 -2 -15 -11 -22 -14 -12 -16 -12 -8 0
6 11 4 13 -11 8 -18 -7 -18 -7 0 8 23 18 23 18 30 6z m96 -7 c0 -2 -12 -4 -27
-4 -21 0 -24 3 -14 9 13 8 41 5 41 -5z m260 6 c0 -5 -8 -10 -17 -10 -15 0 -16
2 -3 10 19 12 20 12 20 0z m149 -11 c-16 -10 -23 -4 -14 10 3 6 11 8 17 5 6
-4 5 -9 -3 -15z m161 13 c0 -13 -23 -32 -39 -32 -11 0 -10 4 4 20 19 21 35 26
35 12z m74 -13 c-3 -5 -10 -7 -15 -3 -5 3 -7 10 -3 15 3 5 10 7 15 3 5 -3 7
-10 3 -15z m121 1 c-3 -5 -1 -11 4 -15 14 -8 2 -35 -13 -29 -7 3 -12 17 -10
32 3 35 2 34 14 27 6 -4 8 -10 5 -15z m62 0 c3 -11 9 -17 14 -14 5 3 9 0 9 -5
0 -21 -45 -4 -48 17 -4 28 18 29 25 2z m54 7 c-1 -4 -1 -14 -1 -22 0 -8 -4
-15 -9 -15 -10 0 -21 36 -13 45 7 7 24 2 23 -8z m479 7 c0 -8 -19 -13 -24 -6
-3 5 1 9 9 9 8 0 15 -2 15 -3z m70 -19 c-7 -8 -8 -20 -4 -26 4 -8 3 -9 -4 -5
-10 6 -10 22 -3 54 1 2 6 0 11 -3 8 -5 7 -11 0 -20z m-1367 8 c-7 -2 -19 -2
-25 0 -7 3 -2 5 12 5 14 0 19 -2 13 -5z m74 1 c-3 -3 -12 -4 -19 -1 -8 3 -5 6
6 6 11 1 17 -2 13 -5z m60 0 c-3 -3 -12 -4 -19 -1 -8 3 -5 6 6 6 11 1 17 -2
13 -5z m143 2 c0 -11 -19 -15 -25 -6 -3 5 1 10 9 10 9 0 16 -2 16 -4z m150 0
c0 -3 -4 -8 -10 -11 -5 -3 -10 -1 -10 4 0 6 5 11 10 11 6 0 10 -2 10 -4z m141
-34 c2 2 1 -1 -4 -7 -5 -6 -11 -4 -17 5 -5 8 -10 11 -10 7 0 -5 -5 -5 -10 -2
-6 4 -8 11 -4 16 4 6 13 4 23 -5 10 -9 20 -15 22 -14z m-356 8 c3 -5 -1 -10
-10 -10 -9 0 -13 5 -10 10 3 6 8 10 10 10 2 0 7 -4 10 -10z m635 0 c0 -5 -4
-10 -10 -10 -5 0 -10 5 -10 10 0 6 5 10 10 10 6 0 10 -4 10 -10z m559 -3 c8
-10 7 -14 -4 -14 -8 0 -15 6 -15 14 0 7 2 13 4 13 2 0 9 -6 15 -13z m-1679 -7
c0 -5 -7 -10 -16 -10 -8 0 -12 5 -9 10 3 6 10 10 16 10 5 0 9 -4 9 -10z m75 0
c3 -5 -1 -10 -10 -10 -9 0 -13 5 -10 10 3 6 8 10 10 10 2 0 7 -4 10 -10z m60
0 c3 -5 -1 -10 -10 -10 -9 0 -13 5 -10 10 3 6 8 10 10 10 2 0 7 -4 10 -10z
m47 -12 c-7 -7 -12 -8 -12 -2 0 14 12 26 19 19 2 -3 -1 -11 -7 -17z m80 0 c-7
-7 -12 -8 -12 -2 0 14 12 26 19 19 2 -3 -1 -11 -7 -17z m88 12 c0 -5 -8 -10
-17 -10 -15 0 -16 2 -3 10 19 12 20 12 20 0z m80 0 c0 -5 -7 -10 -16 -10 -8 0
-12 5 -9 10 3 6 10 10 16 10 5 0 9 -4 9 -10z m115 0 c3 -5 -1 -10 -10 -10 -9
0 -13 5 -10 10 3 6 8 10 10 10 2 0 7 -4 10 -10z m42 -15 c-23 -22 -33 -18 -12
5 10 11 20 18 23 16 2 -3 -3 -12 -11 -21z m73 15 c0 -5 -5 -10 -11 -10 -6 0
-9 -7 -5 -15 3 -8 2 -15 -3 -15 -16 0 -19 13 -8 31 13 20 27 25 27 9z m60 1
c0 -6 -4 -13 -10 -16 -5 -3 -10 1 -10 9 0 9 5 16 10 16 6 0 10 -4 10 -9z m63
-4 c3 -8 -3 -14 -14 -14 -19 -2 -25 8 -12 20 10 11 20 8 26 -6z m812 3 c3 -5
1 -10 -4 -10 -6 0 -11 5 -11 10 0 6 2 10 4 10 3 0 8 -4 11 -10z m-1132 -40
c-3 -11 -9 -18 -13 -15 -7 4 -7 18 -1 43 1 2 5 1 10 -2 5 -3 7 -15 4 -26z m57
4 c0 -8 -4 -12 -10 -9 -5 3 -10 10 -10 16 0 5 5 9 10 9 6 0 10 -7 10 -16z
m1157 -4 c1 -11 -2 -18 -8 -15 -11 7 -12 35 -1 35 4 0 8 -9 9 -20z m37 5 c3
-8 1 -15 -4 -15 -6 0 -10 7 -10 15 0 8 2 15 4 15 2 0 6 -7 10 -15z m-1674 -5
c0 -5 -7 -10 -15 -10 -8 0 -15 5 -15 10 0 6 7 10 15 10 8 0 15 -4 15 -10z m75
0 c3 -5 -1 -10 -9 -10 -9 0 -16 5 -16 10 0 6 4 10 9 10 6 0 13 -4 16 -10z m60
0 c3 -5 -1 -10 -9 -10 -9 0 -16 5 -16 10 0 6 4 10 9 10 6 0 13 -4 16 -10z m55
0 c0 -5 -4 -10 -10 -10 -5 0 -10 5 -10 10 0 6 5 10 10 10 6 0 10 -4 10 -10z
m60 0 c0 -5 -5 -10 -11 -10 -5 0 -7 5 -4 10 3 6 8 10 11 10 2 0 4 -4 4 -10z
m60 -10 c0 -11 -4 -20 -10 -20 -5 0 -10 9 -10 20 0 11 5 20 10 20 6 0 10 -9
10 -20z m53 -5 c-7 -21 -13 -19 -13 6 0 11 4 18 10 14 5 -3 7 -12 3 -20z
m1192 15 c3 -5 1 -10 -4 -10 -6 0 -11 5 -11 10 0 6 2 10 4 10 3 0 8 -4 11 -10z
m40 0 c3 -5 1 -10 -4 -10 -6 0 -11 5 -11 10 0 6 2 10 4 10 3 0 8 -4 11 -10z
m-1415 -30 c0 -5 -4 -10 -10 -10 -5 0 -10 5 -10 10 0 6 5 10 10 10 6 0 10 -4
10 -10z m1537 -29 c1 -11 -2 -23 -8 -26 -6 -4 -9 1 -7 11 2 13 -4 20 -19 22
-13 2 -23 8 -23 13 0 6 4 8 9 4 5 -3 13 0 16 6 9 14 28 -3 32 -30z m-1796 16
c-6 -8 -7 -18 -3 -23 4 -4 -1 -2 -10 5 -24 18 -23 31 3 31 17 0 19 -3 10 -13z
m79 3 c0 -5 -7 -10 -15 -10 -8 0 -15 5 -15 10 0 6 7 10 15 10 8 0 15 -4 15
-10z m60 0 c0 -5 -7 -10 -15 -10 -8 0 -15 5 -15 10 0 6 7 10 15 10 8 0 15 -4
15 -10z m56 -4 c8 -8 14 -23 13 -33 0 -15 -2 -14 -11 5 -6 12 -15 22 -20 22
-4 0 -8 5 -8 10 0 14 9 12 26 -4z m114 8 c0 -3 -7 -12 -15 -21 -20 -19 -32
-10 -14 11 14 15 29 21 29 10z m1325 -4 c3 -5 1 -10 -4 -10 -6 0 -11 5 -11 10
0 6 2 10 4 10 3 0 8 -4 11 -10z m40 0 c3 -5 1 -10 -4 -10 -6 0 -11 5 -11 10 0
6 2 10 4 10 3 0 8 -4 11 -10z m40 0 c3 -5 1 -10 -4 -10 -6 0 -11 5 -11 10 0 6
2 10 4 10 3 0 8 -4 11 -10z m-190 -18 c-3 -3 -11 0 -18 7 -9 10 -8 11 6 5 10
-3 15 -9 12 -12z m-1567 -19 c-4 -22 -22 -20 -26 1 -2 10 3 16 13 16 10 0 15
-7 13 -17z m88 -8 c14 -13 14 -17 0 -31 -9 -8 -16 -21 -16 -27 0 -7 -5 -4 -11
7 -9 14 -8 21 2 28 11 7 11 11 2 15 -16 6 -17 23 -2 23 6 0 17 -7 25 -15z m74
11 c0 -2 -3 -11 -6 -20 -9 -23 -24 -20 -24 4 0 11 7 20 15 20 8 0 15 -2 15 -4z
m70 -6 c0 -5 -4 -10 -10 -10 -5 0 -10 5 -10 10 0 6 5 10 10 10 6 0 10 -4 10
-10z m1525 0 c3 -5 1 -10 -4 -10 -6 0 -11 5 -11 10 0 6 2 10 4 10 3 0 8 -4 11
-10z m40 0 c3 -5 1 -10 -4 -10 -6 0 -11 5 -11 10 0 6 2 10 4 10 3 0 8 -4 11
-10z m-180 -20 c8 0 17 -5 21 -12 5 -7 3 -8 -6 -3 -9 5 -11 4 -6 -3 4 -7 16
-12 27 -12 11 0 19 -7 19 -16 0 -8 4 -13 9 -10 5 3 11 -1 14 -8 6 -14 1 -15
-43 -4 -10 2 -15 -4 -14 -20 1 -12 -1 -20 -4 -17 -4 3 -7 17 -8 30 -1 17 4 22
18 20 10 -2 18 0 18 6 0 5 -6 9 -12 10 -7 0 -23 2 -36 5 -17 3 -21 0 -16 -8 4
-7 3 -9 -1 -5 -13 11 -15 38 -3 31 6 -4 8 2 4 17 -3 13 -3 18 0 12 3 -7 12
-13 19 -13z m-1735 -26 c0 -8 -4 -12 -10 -9 -5 3 -10 10 -10 16 0 5 5 9 10 9
6 0 10 -7 10 -16z m127 0 c14 -14 14 -16 -3 -29 -11 -7 -21 -11 -24 -8 -3 3 1
8 8 10 17 6 15 23 -3 23 -8 0 -15 5 -15 10 0 15 19 12 37 -6z m-833 -20 c8
-21 8 -24 -3 -24 -5 0 -11 9 -14 20 -6 24 8 27 17 4z m746 -8 c0 -14 -4 -28
-10 -31 -6 -4 -10 7 -10 24 0 17 5 31 10 31 6 0 10 -11 10 -24z m2003 1 c3 -8
-1 -14 -9 -14 -8 0 -14 6 -14 14 0 7 4 13 9 13 5 0 11 -6 14 -13z m-2082 -10
c-1 -4 -1 -16 -1 -27 0 -11 -4 -20 -8 -20 -5 0 -9 14 -9 30 0 17 4 29 9 28 5
-2 9 -7 9 -11z m-629 -42 c-2 -19 -5 -35 -7 -35 -2 0 -5 16 -7 35 -2 21 0 35
7 35 7 0 9 -14 7 -35z m668 25 c0 -5 -4 -10 -10 -10 -5 0 -10 5 -10 10 0 6 5
10 10 10 6 0 10 -4 10 -10z m-740 -14 c0 -3 -4 -8 -10 -11 -5 -3 -10 -1 -10 4
0 6 5 11 10 11 6 0 10 -2 10 -4z m2572 -5 c4 0 13 -11 19 -23 6 -13 8 -20 4
-16 -4 4 -13 0 -20 -8 -11 -15 -12 -15 -12 0 0 9 5 16 11 16 6 0 2 7 -8 15
-23 17 -36 11 -31 -14 2 -10 -3 -18 -11 -18 -8 0 -10 4 -5 11 5 6 7 18 6 27
-3 15 9 17 47 10z m256 -18 c26 -39 32 -57 21 -74 -6 -10 -9 -6 -9 16 -1 32
-20 65 -39 65 -6 0 -11 5 -11 10 0 19 19 10 38 -17z m-2794 -9 c3 -8 2 -12 -4
-9 -6 3 -10 10 -10 16 0 14 7 11 14 -7z m264 7 c8 -5 12 -19 9 -32 l-4 -24 -8
23 c-4 12 -11 22 -16 22 -5 0 -9 5 -9 10 0 12 10 13 28 1z m-58 -9 c0 -13 -12
-22 -22 -16 -10 6 -1 24 13 24 5 0 9 -4 9 -8z m130 -32 c-11 -7 -17 -4 -21 8
-10 26 1 36 20 18 14 -15 14 -18 1 -26z m2357 8 c-3 -8 -6 -5 -6 6 -1 11 2 17
5 13 3 -3 4 -12 1 -19z m20 0 c-3 -8 -6 -5 -6 6 -1 11 2 17 5 13 3 -3 4 -12 1
-19z m20 0 c-3 -8 -6 -5 -6 6 -1 11 2 17 5 13 3 -3 4 -12 1 -19z m20 -15 c-3
-10 -5 -4 -5 12 0 17 2 24 5 18 2 -7 2 -21 0 -30z m-2522 7 c-3 -5 -11 -10
-16 -10 -6 0 -7 5 -4 10 3 6 11 10 16 10 6 0 7 -4 4 -10z m2365 -5 c7 -9 10
-18 6 -22 -3 -3 -6 -1 -6 6 0 7 -6 11 -13 8 -8 -3 -14 1 -14 9 0 18 11 18 27
-1z m197 -22 c-3 -10 -5 -4 -5 12 0 17 2 24 5 18 2 -7 2 -21 0 -30z m-247 -34
c0 -6 -4 -7 -10 -4 -5 3 -10 11 -10 16 0 6 5 7 10 4 6 -3 10 -11 10 -16z m72
-65 c-5 -9 -8 -1 -9 23 -1 33 0 35 8 15 5 -13 5 -30 1 -38z m35 34 c-3 -8 -6
-5 -6 6 -1 11 2 17 5 13 3 -3 4 -12 1 -19z m-187 -9 c0 -6 -4 -7 -10 -4 -5 3
-10 11 -10 16 0 6 5 7 10 4 6 -3 10 -11 10 -16z m38 -14 c0 -13 -4 -23 -8 -20
-4 3 -7 16 -7 30 0 13 3 23 7 20 4 -3 8 -16 8 -30z m42 14 c0 -6 -4 -7 -10 -4
-5 3 -10 11 -10 16 0 6 5 7 10 4 6 -3 10 -11 10 -16z m144 -25 c3 -8 2 -12 -4
-9 -6 3 -10 10 -10 16 0 14 7 11 14 -7z m40 -43 c14 -15 15 -21 4 -27 -7 -4
-10 -3 -5 1 4 5 0 17 -10 27 -9 10 -14 18 -11 18 3 0 13 -9 22 -19z m-229 -1
c3 -5 1 -10 -4 -10 -6 0 -11 5 -11 10 0 6 2 10 4 10 3 0 8 -4 11 -10z m40 0
c3 -5 1 -10 -4 -10 -6 0 -11 5 -11 10 0 6 2 10 4 10 3 0 8 -4 11 -10z m40 -40
c3 -5 1 -10 -4 -10 -6 0 -11 5 -11 10 0 6 2 10 4 10 3 0 8 -4 11 -10z m194
-30 c6 -18 6 -28 1 -25 -6 4 -10 1 -10 -4 0 -6 5 -11 11 -11 8 0 8 -4 0 -14
-6 -7 -9 -22 -5 -32 5 -19 5 -19 -6 0 -15 23 -20 86 -7 86 5 0 4 7 -3 15 -7 9
-8 15 -2 15 5 0 15 -14 21 -30z m-413 -98 c11 -15 11 -23 3 -28 -7 -4 -9 -3
-6 4 4 5 -6 22 -23 35 -16 14 -30 29 -30 32 0 10 41 -21 56 -43z m331 -4 c-3
-8 -6 -5 -6 6 -1 11 2 17 5 13 3 -3 4 -12 1 -19z m34 -1 c-10 -9 -11 -8 -5 6
3 10 9 15 12 12 3 -3 0 -11 -7 -18z m111 -19 c-7 -7 -12 -8 -12 -2 0 14 12 26
19 19 2 -3 -1 -11 -7 -17z m-569 -3 c-3 -9 -8 -14 -10 -11 -3 3 -2 9 2 15 9
16 15 13 8 -4z m77 -5 c0 -5 -2 -10 -4 -10 -3 0 -8 5 -11 10 -3 6 -1 10 4 10
6 0 11 -4 11 -10z m427 -12 c-3 -8 -6 -5 -6 6 -1 11 2 17 5 13 3 -3 4 -12 1
-19z m40 0 c-3 -8 -6 -5 -6 6 -1 11 2 17 5 13 3 -3 4 -12 1 -19z m51 -43 c-3
-3 -9 2 -12 12 -6 14 -5 15 5 6 7 -7 10 -15 7 -18z m-788 -25 c0 -5 -2 -10 -4
-10 -3 0 -8 5 -11 10 -3 6 -1 10 4 10 6 0 11 -4 11 -10z m390 -67 c0 -21 -3
-24 -9 -14 -5 8 -7 20 -4 28 8 21 13 15 13 -14z m-42 -18 c-3 -3 -9 2 -12 12
-6 14 -5 15 5 6 7 -7 10 -15 7 -18z m-78 5 c0 -5 -2 -10 -4 -10 -3 0 -8 5 -11
10 -3 6 -1 10 4 10 6 0 11 -4 11 -10z m192 -49 c2 -17 0 -32 -6 -34 -7 -3 -11
11 -11 33 0 44 11 44 17 1z m-355 7 c-3 -8 -6 -5 -6 6 -1 11 2 17 5 13 3 -3 4
-12 1 -19z m40 0 c-3 -8 -6 -5 -6 6 -1 11 2 17 5 13 3 -3 4 -12 1 -19z m80 0
c-3 -8 -6 -5 -6 6 -1 11 2 17 5 13 3 -3 4 -12 1 -19z m123 1 c0 -6 -4 -7 -10
-4 -5 3 -10 11 -10 16 0 6 5 7 10 4 6 -3 10 -11 10 -16z m38 -4 c-3 -3 -9 2
-12 12 -6 14 -5 15 5 6 7 -7 10 -15 7 -18z m-201 -37 c-3 -8 -6 -5 -6 6 -1 11
2 17 5 13 3 -3 4 -12 1 -19z m123 1 c0 -6 -4 -7 -10 -4 -5 3 -10 11 -10 16 0
6 5 7 10 4 6 -3 10 -11 10 -16z m32 -15 c-9 -16 -10 -14 -9 8 1 15 6 23 11 18
4 -4 4 -16 -2 -26z m46 11 c-3 -3 -9 2 -12 12 -6 14 -5 15 5 6 7 -7 10 -15 7
-18z m126 4 c-2 -4 0 -10 6 -14 5 -3 10 0 10 7 0 10 2 10 9 -1 10 -15 4 -41
-9 -41 -4 0 -10 10 -13 22 -4 12 -9 19 -13 16 -3 -4 -2 -21 4 -37 9 -24 8 -31
-2 -31 -8 0 -13 15 -12 43 0 29 4 44 12 44 7 0 11 -4 8 -8z m-287 -21 c-3 -8
-6 -5 -6 6 -1 11 2 17 5 13 3 -3 4 -12 1 -19z m163 -19 c0 -6 -4 -7 -10 -4 -5
3 -10 11 -10 16 0 6 5 7 10 4 6 -3 10 -11 10 -16z m40 0 c0 -6 -4 -7 -10 -4
-5 3 -10 11 -10 16 0 6 5 7 10 4 6 -3 10 -11 10 -16z m40 2 c0 -4 -6 -8 -14
-8 -8 0 -12 6 -9 14 5 13 23 9 23 -6z m99 -25 c9 -10 7 -17 -6 -27 -16 -13
-17 -12 -5 3 9 11 10 18 2 23 -12 8 -24 -19 -17 -39 3 -8 0 -17 -7 -19 -15 -6
-10 40 7 61 12 15 12 15 26 -2z m-219 -11 c0 -8 -2 -15 -4 -15 -2 0 -6 7 -10
15 -3 8 -1 15 4 15 6 0 10 -7 10 -15z m38 -10 c-3 -3 -9 2 -12 12 -6 14 -5 15
5 6 7 -7 10 -15 7 -18z m37 15 c3 -5 1 -10 -4 -10 -6 0 -11 5 -11 10 0 6 2 10
4 10 3 0 8 -4 11 -10z m45 -11 c0 -6 -4 -7 -10 -4 -5 3 -10 11 -10 16 0 6 5 7
10 4 6 -3 10 -11 10 -16z m-45 -29 c3 -5 1 -10 -4 -10 -6 0 -11 5 -11 10 0 6
2 10 4 10 3 0 8 -4 11 -10z m80 0 c3 -5 1 -10 -4 -10 -6 0 -11 5 -11 10 0 6 2
10 4 10 3 0 8 -4 11 -10z m-155 -40 c0 -5 -4 -10 -10 -10 -5 0 -10 5 -10 10 0
6 5 10 10 10 6 0 10 -4 10 -10z m40 0 c0 -5 -4 -10 -10 -10 -5 0 -10 5 -10 10
0 6 5 10 10 10 6 0 10 -4 10 -10z m75 0 c3 -5 1 -10 -4 -10 -6 0 -11 5 -11 10
0 6 2 10 4 10 3 0 8 -4 11 -10z m40 0 c3 -5 1 -10 -4 -10 -6 0 -11 5 -11 10 0
6 2 10 4 10 3 0 8 -4 11 -10z m40 0 c3 -5 1 -10 -4 -10 -6 0 -11 5 -11 10 0 6
2 10 4 10 3 0 8 -4 11 -10z m-100 -20 c3 -5 1 -10 -4 -10 -6 0 -11 5 -11 10 0
6 2 10 4 10 3 0 8 -4 11 -10z m-55 -20 c0 -5 -4 -10 -10 -10 -5 0 -10 5 -10
10 0 6 5 10 10 10 6 0 10 -4 10 -10z m35 0 c3 -5 1 -10 -4 -10 -6 0 -11 5 -11
10 0 6 2 10 4 10 3 0 8 -4 11 -10z m59 -15 c3 -8 1 -15 -4 -15 -6 0 -10 7 -10
15 0 8 2 15 4 15 2 0 6 -7 10 -15z m-59 -24 c3 -5 2 -12 -3 -15 -5 -3 -9 1 -9
9 0 17 3 19 12 6z m-2304 -48 c13 -16 12 -17 -3 -4 -10 7 -18 15 -18 17 0 8 8
3 21 -13z m2376 -5 c-3 -8 -6 -5 -6 6 -1 11 2 17 5 13 3 -3 4 -12 1 -19z m39
-2 c0 -14 -5 -21 -9 -17 -4 4 -5 15 -1 24 9 24 12 21 10 -7z m21 -8 c-3 -8 -6
-5 -6 6 -1 11 2 17 5 13 3 -3 4 -12 1 -19z m40 -25 c-3 -10 -5 -2 -5 17 0 19
2 27 5 18 2 -10 2 -26 0 -35z m53 18 c0 -11 -4 -23 -10 -26 -6 -4 -10 5 -10
19 0 14 5 26 10 26 6 0 10 -9 10 -19z m-2480 -16 c7 -9 8 -15 2 -15 -5 0 -12
7 -16 15 -3 8 -4 15 -2 15 2 0 9 -7 16 -15z m2447 -7 c-3 -8 -6 -5 -6 6 -1 11
2 17 5 13 3 -3 4 -12 1 -19z m-2740 -24 c-3 -3 -12 -4 -19 -1 -8 3 -5 6 6 6
11 1 17 -2 13 -5z m373 -49 c7 -9 8 -15 2 -15 -5 0 -12 7 -16 15 -3 8 -4 15
-2 15 2 0 9 -7 16 -15z m-365 -25 c3 -5 1 -10 -4 -10 -6 0 -11 5 -11 10 0 6 2
10 4 10 3 0 8 -4 11 -10z m431 -22 l19 -21 -27 18 c-29 18 -34 25 -20 25 5 0
17 -10 28 -22z m-391 -18 c3 -5 2 -10 -4 -10 -5 0 -13 5 -16 10 -3 6 -2 10 4
10 5 0 13 -4 16 -10z m75 0 c0 -5 -2 -10 -4 -10 -3 0 -8 5 -11 10 -3 6 -1 10
4 10 6 0 11 -4 11 -10z m155 0 c3 -5 1 -10 -4 -10 -6 0 -11 5 -11 10 0 6 2 10
4 10 3 0 8 -4 11 -10z m245 -44 c0 -11 -30 1 -39 16 -11 18 -11 18 14 2 14 -9
25 -17 25 -18z m-515 4 c3 -5 1 -10 -4 -10 -6 0 -11 5 -11 10 0 6 2 10 4 10 3
0 8 -4 11 -10z m80 0 c3 -5 1 -10 -4 -10 -6 0 -11 5 -11 10 0 6 2 10 4 10 3 0
8 -4 11 -10z m75 0 c0 -5 -4 -10 -10 -10 -5 0 -10 5 -10 10 0 6 5 10 10 10 6
0 10 -4 10 -10z m115 0 c3 -5 1 -10 -4 -10 -6 0 -11 5 -11 10 0 6 2 10 4 10 3
0 8 -4 11 -10z m40 0 c3 -5 1 -10 -4 -10 -6 0 -11 5 -11 10 0 6 2 10 4 10 3 0
8 -4 11 -10z m40 0 c3 -5 1 -10 -4 -10 -6 0 -11 5 -11 10 0 6 2 10 4 10 3 0 8
-4 11 -10z m225 -74 c0 -6 -11 2 -25 18 -32 37 -32 46 0 16 14 -13 25 -28 25
-34z m-495 34 c3 -5 2 -10 -4 -10 -5 0 -13 5 -16 10 -3 6 -2 10 4 10 5 0 13
-4 16 -10z m80 0 c3 -5 2 -10 -4 -10 -5 0 -13 5 -16 10 -3 6 -2 10 4 10 5 0
13 -4 16 -10z m75 0 c0 -5 -4 -10 -10 -10 -5 0 -10 5 -10 10 0 6 5 10 10 10 6
0 10 -4 10 -10z m75 0 c3 -5 1 -10 -4 -10 -6 0 -11 5 -11 10 0 6 2 10 4 10 3
0 8 -4 11 -10z m40 0 c3 -5 1 -10 -4 -10 -6 0 -11 5 -11 10 0 6 2 10 4 10 3 0
8 -4 11 -10z m40 0 c3 -5 1 -10 -4 -10 -6 0 -11 5 -11 10 0 6 2 10 4 10 3 0 8
-4 11 -10z m40 0 c3 -5 1 -10 -4 -10 -6 0 -11 5 -11 10 0 6 2 10 4 10 3 0 8
-4 11 -10z m-400 -30 c10 -11 14 -20 8 -20 -5 0 -18 9 -28 20 -10 11 -14 20
-8 20 5 0 18 -9 28 -20z m80 0 c3 -5 2 -10 -4 -10 -5 0 -13 5 -16 10 -3 6 -2
10 4 10 5 0 13 -4 16 -10z m45 -10 c0 -5 -4 -10 -10 -10 -5 0 -10 5 -10 10 0
6 5 10 10 10 6 0 10 -4 10 -10z m60 0 c0 -5 -4 -10 -10 -10 -5 0 -10 5 -10 10
0 6 5 10 10 10 6 0 10 -4 10 -10z m60 0 c0 -5 -4 -10 -10 -10 -5 0 -10 5 -10
10 0 6 5 10 10 10 6 0 10 -4 10 -10z m35 0 c3 -5 1 -10 -4 -10 -6 0 -11 5 -11
10 0 6 2 10 4 10 3 0 8 -4 11 -10z m45 0 c0 -5 -4 -10 -10 -10 -5 0 -10 5 -10
10 0 6 5 10 10 10 6 0 10 -4 10 -10z m35 0 c3 -5 1 -10 -4 -10 -6 0 -11 5 -11
10 0 6 2 10 4 10 3 0 8 -4 11 -10z m216 -7 c13 -16 12 -17 -3 -4 -17 13 -22
21 -14 21 2 0 10 -8 17 -17z m-604 -40 c-3 -3 -11 -2 -17 2 -9 6 -9 10 1 16
14 8 27 -7 16 -18z m73 7 c0 -5 -4 -10 -10 -10 -5 0 -10 5 -10 10 0 6 5 10 10
10 6 0 10 -4 10 -10z m45 0 c3 -5 2 -10 -4 -10 -5 0 -13 5 -16 10 -3 6 -2 10
4 10 5 0 13 -4 16 -10z m75 0 c0 -5 -4 -10 -10 -10 -5 0 -10 5 -10 10 0 6 5
10 10 10 6 0 10 -4 10 -10z m60 0 c0 -5 -4 -10 -10 -10 -5 0 -10 5 -10 10 0 6
5 10 10 10 6 0 10 -4 10 -10z m60 0 c0 -5 -4 -10 -10 -10 -5 0 -10 5 -10 10 0
6 5 10 10 10 6 0 10 -4 10 -10z m35 0 c3 -5 1 -10 -4 -10 -6 0 -11 5 -11 10 0
6 2 10 4 10 3 0 8 -4 11 -10z m40 0 c3 -5 1 -10 -4 -10 -6 0 -11 5 -11 10 0 6
2 10 4 10 3 0 8 -4 11 -10z m40 0 c3 -5 1 -10 -4 -10 -6 0 -11 5 -11 10 0 6 2
10 4 10 3 0 8 -4 11 -10z m40 0 c3 -5 1 -10 -4 -10 -6 0 -11 5 -11 10 0 6 2
10 4 10 3 0 8 -4 11 -10z m-405 -40 c0 -5 -4 -10 -9 -10 -6 0 -13 5 -16 10 -3
6 1 10 9 10 9 0 16 -4 16 -10z m55 0 c3 -5 2 -10 -4 -10 -5 0 -13 5 -16 10 -3
6 -2 10 4 10 5 0 13 -4 16 -10z m75 0 c0 -5 -4 -10 -10 -10 -5 0 -10 5 -10 10
0 6 5 10 10 10 6 0 10 -4 10 -10z m40 0 c0 -5 -4 -10 -10 -10 -5 0 -10 5 -10
10 0 6 5 10 10 10 6 0 10 -4 10 -10z m80 0 c0 -5 -4 -10 -10 -10 -5 0 -10 5
-10 10 0 6 5 10 10 10 6 0 10 -4 10 -10z m75 0 c3 -5 1 -10 -4 -10 -6 0 -11 5
-11 10 0 6 2 10 4 10 3 0 8 -4 11 -10z m40 0 c3 -5 1 -10 -4 -10 -6 0 -11 5
-11 10 0 6 2 10 4 10 3 0 8 -4 11 -10z m40 0 c3 -5 1 -10 -4 -10 -6 0 -11 5
-11 10 0 6 2 10 4 10 3 0 8 -4 11 -10z"/>
<path d="M1120 3980 c-9 -6 -10 -10 -3 -10 6 0 15 5 18 10 8 12 4 12 -15 0z"/>
<path d="M970 3969 c0 -5 5 -7 10 -4 6 3 10 8 10 11 0 2 -4 4 -10 4 -5 0 -10
-5 -10 -11z"/>
<path d="M1010 3907 c0 -2 11 -13 25 -25 14 -12 25 -18 25 -13 0 5 -11 16 -25
25 -14 9 -25 15 -25 13z"/>
<path d="M1105 3889 c-4 -6 -5 -12 -2 -15 2 -3 7 2 10 11 7 17 1 20 -8 4z"/>
<path d="M1130 3898 c0 -2 9 -11 20 -21 11 -9 20 -13 20 -7 0 5 -9 14 -20 20
-11 6 -20 9 -20 8z"/>
<path d="M1110 3860 c-9 -6 -10 -10 -3 -10 6 0 15 5 18 10 8 12 4 12 -15 0z"/>
<path d="M1244 3679 c-10 -17 9 -30 26 -18 12 9 12 10 -4 5 -13 -5 -17 -2 -12
9 6 17 0 20 -10 4z"/>
<path d="M1309 3561 c11 -7 11 -9 0 -13 -8 -3 -10 -9 -6 -14 9 -10 28 16 21
28 -3 4 -11 8 -17 8 -8 0 -7 -3 2 -9z"/>
<path d="M1267 3545 c3 -8 9 -12 14 -9 12 7 11 11 -5 17 -10 4 -13 1 -9 -8z"/>
<path d="M1337 3535 c-4 -8 -3 -16 1 -19 4 -3 9 4 9 15 2 23 -3 25 -10 4z"/>
<path d="M1375 3541 c-3 -5 -2 -12 3 -15 5 -3 9 1 9 9 0 17 -3 19 -12 6z"/>
<path d="M1305 3510 c3 -5 1 -10 -6 -10 -7 0 -10 -2 -7 -5 8 -9 38 6 32 16 -3
5 -10 9 -15 9 -6 0 -7 -4 -4 -10z"/>
<path d="M1496 3494 c-3 -9 -12 -14 -20 -11 -9 4 -13 -2 -12 -16 1 -11 8 -22
16 -24 13 -4 13 -3 1 6 -13 8 -11 13 10 29 13 11 21 23 18 27 -4 3 -9 -2 -13
-11z"/>
<path d="M1460 3419 c0 -5 5 -7 10 -4 6 3 10 8 10 11 0 2 -4 4 -10 4 -5 0 -10
-5 -10 -11z"/>
<path d="M1608 3398 c2 -10 9 -21 14 -24 5 -4 5 -11 -1 -18 -7 -9 -4 -12 14
-12 l25 0 -20 21 c-11 12 -18 29 -15 37 4 9 0 15 -8 15 -9 0 -12 -7 -9 -19z"/>
<path d="M1776 3261 c-3 -5 2 -15 12 -22 15 -12 16 -12 5 2 -7 9 -10 19 -6 22
3 4 4 7 0 7 -3 0 -8 -4 -11 -9z"/>
<path d="M1700 3250 c-9 -6 -10 -10 -3 -10 6 0 15 5 18 10 8 12 4 12 -15 0z"/>
<path d="M1583 3235 c-3 -9 -3 -19 1 -22 3 -4 6 1 6 10 0 8 6 18 13 20 9 4 9
6 -1 6 -7 1 -15 -6 -19 -14z"/>
<path d="M1705 3230 c-19 -8 -19 -9 3 -9 15 -1 21 -5 16 -13 -4 -7 -3 -8 4 -4
8 5 7 39 -2 35 0 0 -10 -4 -21 -9z"/>
<path d="M1766 3227 c3 -10 9 -15 12 -12 3 3 0 11 -7 18 -10 9 -11 8 -5 -6z"/>
<path d="M1697 3193 c-13 -13 -7 -33 11 -33 13 0 14 2 3 9 -7 5 -10 14 -7 20
8 12 3 15 -7 4z"/>
<path d="M1765 3160 c-16 -7 -17 -9 -3 -9 9 -1 20 4 23 9 7 11 7 11 -20 0z"/>
<path d="M1844 3072 c3 -6 -1 -12 -9 -16 -8 -3 -15 -10 -15 -16 0 -6 7 -4 16
4 18 19 20 19 45 5 11 -5 17 -14 15 -18 -3 -4 1 -8 9 -8 11 0 12 3 3 14 -14
17 -73 49 -64 35z"/>
<path d="M1850 2990 c-8 -5 -10 -10 -5 -10 6 0 17 5 25 10 8 5 11 10 5 10 -5
0 -17 -5 -25 -10z"/>
<path d="M1894 2979 c-3 -6 -2 -15 4 -21 6 -6 12 -6 17 3 6 8 4 10 -5 4 -10
-6 -12 -4 -7 8 7 19 2 23 -9 6z"/>
<path d="M2070 2881 c0 -6 4 -13 10 -16 6 -3 7 1 4 9 -7 18 -14 21 -14 7z"/>
<path d="M2039 2861 c6 -10 7 -22 3 -26 -4 -5 -1 -5 6 -1 9 5 9 12 2 27 -6 10
-13 19 -16 19 -2 0 0 -8 5 -19z"/>
<path d="M2203 2685 c0 -8 4 -12 9 -9 5 3 6 10 3 15 -9 13 -12 11 -12 -6z"/>
<path d="M2264 2681 c10 -11 15 -25 11 -33 -6 -10 -5 -10 4 -2 14 13 5 40 -17
49 -13 5 -13 3 2 -14z"/>
<path d="M2233 2675 c0 -8 4 -12 9 -9 5 3 6 10 3 15 -9 13 -12 11 -12 -6z"/>
<path d="M2776 2677 c3 -10 9 -15 12 -12 3 3 0 11 -7 18 -10 9 -11 8 -5 -6z"/>
<path d="M2326 2648 c3 -5 10 -6 15 -3 13 9 11 12 -6 12 -8 0 -12 -4 -9 -9z"/>
<path d="M2236 2635 c-3 -8 -1 -15 4 -15 6 0 10 7 10 15 0 8 -2 15 -4 15 -2 0
-6 -7 -10 -15z"/>
<path d="M2203 2583 c0 -9 4 -10 14 -2 7 6 13 12 13 14 0 1 -6 2 -13 2 -8 0
-14 -6 -14 -14z"/>
<path d="M2290 2523 c7 -3 5 -13 -7 -26 -12 -15 -13 -18 -2 -9 9 6 18 9 22 6
3 -3 4 2 3 12 -2 10 -8 19 -15 20 -7 2 -7 1 -1 -3z"/>
<path d="M2227 2506 c-3 -8 0 -19 7 -26 10 -8 15 -7 19 4 4 11 1 13 -11 9 -15
-6 -15 -5 -3 10 7 9 9 17 3 17 -5 0 -12 -6 -15 -14z"/>
<path d="M2842 2456 c7 -8 15 -12 17 -11 5 6 -10 25 -20 25 -5 0 -4 -6 3 -14z"/>
<path d="M2902 2434 c10 -10 20 -16 22 -13 3 3 -5 11 -17 18 -21 13 -21 12 -5
-5z"/>
<path d="M2320 2390 c6 -11 16 -20 23 -19 9 0 9 2 0 6 -7 2 -13 11 -13 19 0 8
-5 14 -10 14 -7 0 -7 -6 0 -20z"/>
<path d="M2864 2382 c3 -6 1 -13 -4 -15 -6 -3 -5 -4 2 -3 7 2 22 -1 32 -7 19
-9 19 -10 -3 -21 -21 -12 -21 -13 -5 -27 16 -13 17 -12 11 5 -5 14 -3 17 8 13
17 -7 30 9 16 18 -6 3 -9 11 -7 18 1 7 1 8 -2 4 -2 -4 -15 -1 -29 9 -14 9 -23
11 -19 6z"/>
<path d="M116 2365 c10 -8 26 -14 34 -14 9 0 4 6 -10 14 -33 19 -49 19 -24 0z"/>
<path d="M5 2351 c-3 -5 -2 -12 3 -15 5 -3 9 1 9 9 0 17 -3 19 -12 6z"/>
<path d="M72 2343 c25 -4 27 -7 17 -26 -9 -20 -9 -20 4 -5 8 10 18 14 23 10 4
-4 2 1 -5 11 -8 9 -25 16 -40 16 l-26 -2 27 -4z"/>
<path d="M2834 2329 c-3 -6 -1 -16 5 -22 9 -9 10 -7 5 7 -6 15 -4 17 6 11 9
-5 11 -4 6 3 -9 15 -13 15 -22 1z"/>
<path d="M134 2318 c3 -11 0 -18 -7 -18 -7 -1 -5 -6 5 -14 10 -7 15 -16 11
-20 -4 -4 1 -4 12 0 11 5 14 9 7 12 -7 2 -10 7 -7 11 2 5 -3 17 -11 27 -14 17
-15 17 -10 2z"/>
<path d="M195 2260 c-3 -6 1 -7 9 -4 18 7 21 14 7 14 -6 0 -13 -4 -16 -10z"/>
<path d="M2830 2216 c0 -2 7 -6 15 -10 8 -3 15 -1 15 4 0 6 -7 10 -15 10 -8 0
-15 -2 -15 -4z"/>
<path d="M2362 2184 c-7 -8 -8 -14 -3 -14 10 0 25 19 20 25 -2 1 -10 -3 -17
-11z"/>
<path d="M331 1984 c0 -11 3 -14 6 -6 3 7 2 16 -1 19 -3 4 -6 -2 -5 -13z"/>
<path d="M2805 1980 c4 -6 11 -8 16 -5 14 9 11 15 -7 15 -8 0 -12 -5 -9 -10z"/>
<path d="M360 1940 c-6 -11 -8 -20 -6 -20 3 0 10 9 16 20 6 11 8 20 6 20 -3 0
-10 -9 -16 -20z"/>
<path d="M13 1935 c0 -8 4 -12 9 -9 5 3 6 10 3 15 -9 13 -12 11 -12 -6z"/>
<path d="M50 1937 c12 -16 12 -20 -1 -28 -9 -5 -10 -9 -2 -9 22 0 26 22 7 38
-17 16 -17 16 -4 -1z"/>
<path d="M437 1931 c-4 -17 -3 -21 5 -13 5 5 8 16 6 23 -3 8 -7 3 -11 -10z"/>
<path d="M2805 1940 c3 -5 8 -10 11 -10 2 0 4 5 4 10 0 6 -5 10 -11 10 -5 0
-7 -4 -4 -10z"/>
<path d="M2791 1923 c-1 -6 -4 -20 -7 -30 -5 -17 -5 -17 6 0 6 10 9 23 6 30
-3 9 -5 9 -5 0z"/>
<path d="M2260 1909 c0 -5 -4 -8 -9 -4 -15 9 -58 -15 -58 -32 0 -14 2 -14 12
1 14 19 46 22 41 4 -1 -7 -1 -10 1 -5 3 4 8 5 13 2 4 -2 8 7 8 20 0 14 -2 25
-4 25 -2 0 -4 -5 -4 -11z"/>
<path d="M2326 1912 c-3 -5 1 -9 9 -9 8 0 12 4 9 9 -3 4 -7 8 -9 8 -2 0 -6 -4
-9 -8z"/>
<path d="M377 1890 c10 -11 22 -20 28 -20 5 0 3 5 -5 10 -13 8 -12 10 4 10 25
0 18 5 -17 14 -26 6 -27 6 -10 -14z"/>
<path d="M470 1872 c-8 -4 -16 -13 -18 -20 -2 -10 2 -10 18 0 11 7 20 16 20
20 0 9 0 9 -20 0z"/>
<path d="M1989 1863 c-13 -17 -13 -17 6 -3 11 8 22 16 24 17 2 2 0 3 -6 3 -6
0 -17 -8 -24 -17z"/>
<path d="M2027 1866 c-4 -10 -1 -13 8 -9 8 3 12 9 9 14 -7 12 -11 11 -17 -5z"/>
<path d="M570 1860 c0 -5 5 -10 10 -10 6 0 10 5 10 10 0 6 -4 10 -10 10 -5 0
-10 -4 -10 -10z"/>
<path d="M1874 1858 c-5 -7 -3 -8 6 -3 10 6 12 4 7 -8 -7 -19 8 -23 18 -7 5 8
12 7 23 -2 12 -9 11 -6 -2 10 -21 24 -41 28 -52 10z"/>
<path d="M1945 1860 c-3 -6 1 -7 9 -4 18 7 21 14 7 14 -6 0 -13 -4 -16 -10z"/>
<path d="M2216 1853 c-6 -14 -5 -15 5 -6 7 7 10 15 7 18 -3 3 -9 -2 -12 -12z"/>
<path d="M725 1850 c-4 -6 -10 -8 -15 -5 -5 3 -12 0 -16 -6 -4 -8 -3 -9 4 -5
7 4 12 1 12 -8 0 -9 5 -16 11 -16 5 0 8 -4 5 -9 -3 -5 5 -8 18 -7 24 1 24 1 5
20 -11 10 -18 24 -15 32 6 16 0 19 -9 4z"/>
<path d="M880 1840 c0 -5 5 -10 11 -10 5 0 7 5 4 10 -3 6 -8 10 -11 10 -2 0
-4 -4 -4 -10z"/>
<path d="M1750 1830 c-9 -16 -8 -18 5 -14 8 4 15 12 15 20 0 20 -7 17 -20 -6z"/>
<path d="M1637 1833 c-10 -9 -9 -23 1 -23 5 0 9 7 9 15 0 17 -1 18 -10 8z"/>
<path d="M660 1826 c0 -2 7 -7 16 -10 8 -3 12 -2 9 4 -6 10 -25 14 -25 6z"/>
<path d="M1710 1821 c0 -6 4 -13 10 -16 6 -3 7 1 4 9 -7 18 -14 21 -14 7z"/>
<path d="M658 1802 c7 -5 10 -16 6 -26 -6 -15 -3 -15 20 -4 l27 12 -23 13
c-25 13 -51 18 -30 5z"/>
<path d="M1530 1799 c0 -5 -5 -7 -12 -3 -6 4 -8 3 -5 -3 4 -6 18 -8 33 -5 19
3 22 7 12 13 -18 12 -28 11 -28 -2z"/>
<path d="M1678 1783 c7 -3 16 -2 19 1 4 3 -2 6 -13 5 -11 0 -14 -3 -6 -6z"/>
<path d="M621 1756 c-9 -11 -9 -16 1 -22 7 -4 10 -4 6 1 -4 4 -3 14 3 22 6 7
9 13 6 13 -2 0 -10 -6 -16 -14z"/>
<path d="M1713 1745 c0 -8 6 -15 14 -15 17 0 12 -23 -7 -32 -11 -6 -10 -7 4
-5 25 3 29 31 7 51 -15 14 -18 14 -18 1z"/>
<path d="M1033 1735 c0 -8 4 -12 9 -9 5 3 6 10 3 15 -9 13 -12 11 -12 -6z"/>
<path d="M1257 1739 c7 -7 15 -10 18 -7 3 3 -2 9 -12 12 -14 6 -15 5 -6 -5z"/>
<path d="M1375 1741 c-3 -5 -2 -12 3 -15 5 -3 9 1 9 9 0 17 -3 19 -12 6z"/>
<path d="M1570 1746 c0 -2 8 -10 18 -17 15 -13 16 -12 3 4 -13 16 -21 21 -21
13z"/>
<path d="M1150 1735 c0 -7 30 -13 34 -7 3 4 -4 9 -15 9 -10 1 -19 0 -19 -2z"/>
<path d="M1333 1727 c0 -7 9 -14 19 -14 16 -2 17 1 8 13 -15 18 -27 18 -27 1z"/>
<path d="M20 1712 c-13 -5 -16 -24 -15 -82 0 -61 4 -82 24 -113 13 -21 24 -37
25 -35 1 2 8 12 16 22 10 13 10 17 2 12 -15 -9 -15 -1 -2 25 8 14 7 19 -2 19
-9 0 -9 3 0 12 10 10 15 10 21 0 7 -11 10 -10 15 3 3 10 11 13 18 9 7 -5 5 4
-4 19 -10 14 -18 37 -19 49 0 21 -1 22 -8 3 -8 -19 -8 -19 -21 2 -8 11 -19 19
-26 16 -20 -7 -26 14 -8 31 16 17 10 19 -16 8z m34 -67 c3 -9 0 -15 -9 -15
-16 0 -27 14 -18 24 10 10 21 7 27 -9z m-9 -35 c3 -5 1 -10 -4 -10 -6 0 -11 5
-11 10 0 6 2 10 4 10 3 0 8 -4 11 -10z m48 -3 c3 -8 -3 -13 -14 -13 -19 0 -24
8 -12 19 10 11 20 8 26 -6z m-52 -22 c3 2 5 -11 5 -30 0 -19 -4 -35 -8 -35 -4
0 -8 14 -8 30 0 17 -4 30 -10 30 -5 0 -10 5 -10 11 0 8 4 9 13 0 8 -6 16 -9
18 -6z"/>
<path d="M2497 1705 c3 -8 9 -12 14 -9 12 7 11 11 -5 17 -10 4 -13 1 -9 -8z"/>
<path d="M1860 1700 c0 -13 18 -22 24 -11 3 5 -1 11 -9 15 -8 3 -15 1 -15 -4z"/>
<path d="M876 1688 c3 -5 10 -6 15 -3 13 9 11 12 -6 12 -8 0 -12 -4 -9 -9z"/>
<path d="M1755 1690 c-3 -6 1 -7 9 -4 18 7 21 14 7 14 -6 0 -13 -4 -16 -10z"/>
<path d="M823 1670 c-11 -16 -10 -18 2 -14 8 4 15 12 15 20 0 19 -3 18 -17 -6z"/>
<path d="M118 1658 c8 -8 8 -15 1 -24 -11 -14 7 -14 29 0 10 6 9 11 -5 22 -22
16 -41 18 -25 2z"/>
<path d="M2315 1650 c3 -5 8 -10 11 -10 2 0 4 5 4 10 0 6 -5 10 -11 10 -5 0
-7 -4 -4 -10z"/>
<path d="M817 1639 c-9 -5 -22 -7 -27 -4 -5 3 -7 -1 -4 -9 5 -14 9 -13 30 1
33 21 34 31 1 12z"/>
<path d="M886 1639 c2 -4 0 -10 -6 -14 -5 -3 -10 -1 -10 6 0 8 -4 8 -15 -1 -8
-7 -15 -18 -14 -24 0 -7 2 -6 6 2 2 6 9 12 15 12 6 0 3 -11 -6 -25 -14 -21
-14 -24 -1 -19 8 4 15 13 15 21 0 7 15 20 33 28 17 8 30 15 27 15 -23 6 -48 5
-44 -1z"/>
<path d="M704 1609 c-3 -6 -2 -15 3 -20 5 -5 9 -1 9 11 0 23 -2 24 -12 9z"/>
<path d="M816 1540 c-17 -6 -18 -7 -3 -13 9 -3 19 -2 23 4 9 15 2 18 -20 9z"/>
<path d="M740 1536 c0 -2 7 -9 15 -16 9 -7 15 -8 15 -2 0 5 -7 12 -15 16 -8 3
-15 4 -15 2z"/>
<path d="M400 1380 c0 -5 5 -10 11 -10 5 0 7 5 4 10 -3 6 -8 10 -11 10 -2 0
-4 -4 -4 -10z"/>
</g>
</svg>
